<?xml version="1.0" encoding="UTF-8" standalone="no"?>
<!-- Created with Inkscape (http://www.inkscape.org/) -->

<svg
   xmlns:dc="http://purl.org/dc/elements/1.1/"
   xmlns:cc="http://creativecommons.org/ns#"
   xmlns:rdf="http://www.w3.org/1999/02/22-rdf-syntax-ns#"
   xmlns:svg="http://www.w3.org/2000/svg"
   xmlns="http://www.w3.org/2000/svg"
   xmlns:sodipodi="http://sodipodi.sourceforge.net/DTD/sodipodi-0.dtd"
   xmlns:inkscape="http://www.inkscape.org/namespaces/inkscape"
   id="svg5458"
   version="1.1"
   inkscape:version="0.91 r13725"
   xml:space="preserve"
   width="315"
   height="180"
   viewBox="0 0 315 180"
   sodipodi:docname="coh.svg"><metadata
     id="metadata5464"><rdf:RDF><cc:Work
         rdf:about=""><dc:format>image/svg+xml</dc:format><dc:type
           rdf:resource="http://purl.org/dc/dcmitype/StillImage" /><dc:title></dc:title></cc:Work></rdf:RDF></metadata><defs
     id="defs5462"><clipPath
       clipPathUnits="userSpaceOnUse"
       id="clipPath5472"><path
         d="M 0,144 252,144 252,0 0,0 0,144 Z"
         id="path5474"
         inkscape:connector-curvature="0" /></clipPath><clipPath
       clipPathUnits="userSpaceOnUse"
       id="clipPath5500"><path
         d="m 11.3213,127.413 229.8827,0 0,-48.9887 -229.8827,0 0,48.9887 z"
         id="path5502"
         inkscape:connector-curvature="0" /></clipPath></defs><sodipodi:namedview
     pagecolor="#ffffff"
     bordercolor="#666666"
     borderopacity="1"
     objecttolerance="10"
     gridtolerance="10"
     guidetolerance="10"
     inkscape:pageopacity="0"
     inkscape:pageshadow="2"
     inkscape:window-width="1280"
     inkscape:window-height="628"
     id="namedview5460"
     showgrid="false"
     inkscape:zoom="1.7945382"
     inkscape:cx="103.46217"
     inkscape:cy="88.264615"
     inkscape:window-x="0"
     inkscape:window-y="0"
     inkscape:window-maximized="0"
     inkscape:current-layer="g5466" /><g
     id="g5466"
     inkscape:groupmode="layer"
     inkscape:label="CONSTRUCTIONOFHOPE_LOGO_FINAL"
     transform="matrix(1.25,0,0,-1.25,0,180)"><g
       id="g5468"><g
         id="g5470"
         clip-path="url(#clipPath5472)"><g
           id="g5476"
           transform="translate(223.3008,108.771)"><path
             d="m 0,0 0,-3.685 c -0.583,0 -0.965,-0.095 -1.147,-0.288 -0.182,-0.192 -0.274,-0.469 -0.274,-0.833 l 0,-9.821 -5.968,0 -5.183,8.112 0,-3.436 c 0,-0.43 0.126,-0.703 0.378,-0.819 0.251,-0.116 0.668,-0.174 1.251,-0.174 l 0,-3.683 -6.833,0 0,3.683 c 0.583,0 0.999,0.078 1.252,0.234 0.251,0.155 0.377,0.448 0.377,0.878 l 0,5.026 c 0,0.436 -0.126,0.733 -0.377,0.888 -0.253,0.156 -0.669,0.233 -1.252,0.233 l 0,3.685 7.805,0 4.966,-7.776 0,2.97 c 0,0.436 -0.092,0.733 -0.273,0.888 -0.182,0.156 -0.565,0.233 -1.148,0.233 L -6.426,0 0,0 Z m -29.306,-7.329 c 0,-0.801 0.031,-1.471 0.09,-2.011 0.06,-0.54 0.164,-0.977 0.314,-1.311 0.148,-0.334 0.347,-0.575 0.599,-0.724 0.252,-0.149 0.577,-0.225 0.974,-0.225 0.377,0 0.695,0.076 0.953,0.225 0.259,0.149 0.461,0.39 0.611,0.724 0.149,0.334 0.253,0.771 0.313,1.311 0.059,0.54 0.09,1.21 0.09,2.011 0,0.787 -0.031,1.457 -0.09,2.006 -0.06,0.55 -0.164,0.99 -0.313,1.321 -0.15,0.331 -0.352,0.571 -0.611,0.72 -0.258,0.149 -0.576,0.223 -0.953,0.223 -0.397,0 -0.722,-0.074 -0.974,-0.223 -0.252,-0.149 -0.451,-0.389 -0.599,-0.72 -0.15,-0.331 -0.254,-0.771 -0.314,-1.321 -0.059,-0.549 -0.09,-1.219 -0.09,-2.006 m -6.673,0 c 0,1.278 0.211,2.398 0.63,3.362 0.421,0.963 1.015,1.768 1.784,2.418 0.766,0.649 1.679,1.135 2.735,1.46 1.056,0.323 2.224,0.486 3.501,0.486 1.271,0 2.436,-0.163 3.495,-0.486 1.06,-0.325 1.971,-0.811 2.736,-1.46 0.765,-0.65 1.358,-1.455 1.778,-2.418 0.421,-0.964 0.632,-2.084 0.632,-3.362 0,-1.271 -0.211,-2.388 -0.632,-3.352 -0.42,-0.963 -1.013,-1.771 -1.778,-2.422 -0.765,-0.653 -1.676,-1.141 -2.736,-1.465 -1.059,-0.325 -2.224,-0.487 -3.495,-0.487 -1.277,0 -2.445,0.162 -3.501,0.487 -1.056,0.324 -1.969,0.812 -2.735,1.465 -0.769,0.651 -1.363,1.459 -1.784,2.422 -0.419,0.964 -0.63,2.081 -0.63,3.352 m -10.019,-7.298 0,3.683 c 0.583,0 0.999,0.078 1.251,0.234 0.252,0.155 0.377,0.448 0.377,0.878 l 0,5.026 c 0,0.436 -0.125,0.733 -0.377,0.888 -0.252,0.156 -0.668,0.233 -1.251,0.233 l 0,3.685 9.105,0 0,-3.685 c -0.583,0 -0.998,-0.077 -1.245,-0.233 -0.249,-0.155 -0.374,-0.452 -0.374,-0.888 l 0,-5.026 c 0,-0.43 0.125,-0.723 0.374,-0.878 0.247,-0.156 0.662,-0.234 1.245,-0.234 l 0,-3.683 -9.105,0 z M -46.614,0 l 0,-5.82 -3.268,0 c 0,0.445 -0.011,0.83 -0.034,1.157 -0.023,0.329 -0.074,0.593 -0.153,0.795 -0.08,0.201 -0.202,0.351 -0.364,0.446 -0.162,0.097 -0.379,0.144 -0.65,0.144 l -0.616,0 0,-6.554 c 0,-0.43 0.126,-0.723 0.378,-0.878 0.252,-0.156 0.668,-0.234 1.252,-0.234 l 0,-3.683 -9.108,0 0,3.683 c 0.583,0 0.998,0.078 1.247,0.234 0.248,0.155 0.372,0.448 0.372,0.878 l 0,6.554 -0.605,0 c -0.272,0 -0.489,-0.047 -0.65,-0.144 -0.164,-0.095 -0.286,-0.245 -0.369,-0.446 -0.082,-0.202 -0.133,-0.466 -0.153,-0.795 -0.019,-0.327 -0.029,-0.712 -0.029,-1.157 l -3.279,0 0,5.82 16.029,0 z m -24.34,0.397 c 0.443,0 0.858,-0.036 1.247,-0.109 0.387,-0.073 0.739,-0.168 1.057,-0.283 0.317,-0.116 0.591,-0.238 0.824,-0.368 0.231,-0.129 0.421,-0.246 0.566,-0.352 l 0,0.715 3.278,0 0,-5.413 -3.477,0 c 0,0.444 -0.054,0.815 -0.163,1.113 -0.109,0.298 -0.255,0.539 -0.438,0.725 -0.181,0.185 -0.394,0.318 -0.64,0.397 -0.244,0.079 -0.51,0.119 -0.794,0.119 -0.391,0 -0.725,-0.074 -1.003,-0.223 -0.278,-0.149 -0.505,-0.389 -0.68,-0.72 -0.176,-0.331 -0.308,-0.771 -0.397,-1.321 -0.09,-0.549 -0.134,-1.219 -0.134,-2.006 0,-0.801 0.047,-1.471 0.144,-2.011 0.095,-0.54 0.241,-0.977 0.436,-1.311 0.195,-0.334 0.445,-0.575 0.75,-0.724 0.304,-0.149 0.668,-0.225 1.093,-0.225 0.284,0 0.558,0.056 0.824,0.165 0.264,0.109 0.497,0.276 0.699,0.502 0.202,0.224 0.362,0.505 0.478,0.844 0.115,0.337 0.174,0.744 0.174,1.22 l 3.455,0 c 0,-0.84 -0.132,-1.635 -0.397,-2.382 -0.264,-0.749 -0.679,-1.404 -1.241,-1.966 -0.563,-0.564 -1.278,-1.011 -2.145,-1.342 -0.868,-0.331 -1.897,-0.496 -3.089,-0.496 -1.073,0 -2.087,0.146 -3.043,0.437 -0.956,0.292 -1.791,0.748 -2.502,1.371 -0.713,0.622 -1.277,1.421 -1.69,2.398 -0.414,0.976 -0.62,2.149 -0.62,3.52 0,1.371 0.21,2.544 0.63,3.521 0.421,0.976 0.978,1.775 1.669,2.398 0.691,0.621 1.481,1.079 2.368,1.37 0.887,0.291 1.807,0.437 2.761,0.437 M -86.634,0 l 0,-3.685 c -0.504,0 -0.853,-0.077 -1.049,-0.233 -0.194,-0.155 -0.293,-0.413 -0.293,-0.769 l 0,-4.588 c 0,-0.245 0.028,-0.48 0.08,-0.705 0.053,-0.226 0.145,-0.426 0.273,-0.601 0.13,-0.175 0.302,-0.315 0.518,-0.417 0.214,-0.103 0.488,-0.154 0.819,-0.154 0.635,0 1.098,0.167 1.39,0.501 0.29,0.334 0.437,0.787 0.437,1.356 l 0,4.568 c 0,0.41 -0.123,0.686 -0.368,0.83 -0.244,0.141 -0.583,0.212 -1.013,0.212 l 0,3.685 6.545,0 0,-3.685 c -0.444,0 -0.785,-0.064 -1.023,-0.193 -0.239,-0.128 -0.358,-0.399 -0.358,-0.809 l 0,-4.737 c 0,-0.609 -0.078,-1.243 -0.234,-1.902 -0.155,-0.659 -0.459,-1.261 -0.912,-1.807 -0.453,-0.547 -1.102,-1 -1.943,-1.361 -0.841,-0.36 -1.952,-0.541 -3.337,-0.541 -1.006,0 -1.871,0.091 -2.596,0.273 -0.725,0.182 -1.339,0.422 -1.842,0.72 -0.503,0.297 -0.903,0.638 -1.202,1.018 -0.297,0.38 -0.528,0.775 -0.69,1.182 -0.162,0.407 -0.269,0.804 -0.322,1.191 -0.054,0.388 -0.08,0.743 -0.08,1.068 l 0,4.777 c 0,0.436 -0.125,0.733 -0.377,0.888 -0.252,0.156 -0.67,0.233 -1.252,0.233 l 0,3.685 8.829,0 z m -18.937,-6.772 0.872,0 c 0.556,0 0.94,0.133 1.147,0.401 0.209,0.268 0.314,0.641 0.314,1.118 0,0.556 -0.105,0.957 -0.314,1.201 -0.207,0.245 -0.591,0.367 -1.147,0.367 l -0.872,0 0,-3.087 z m -7.489,-7.855 0,3.683 c 0.582,0 0.999,0.078 1.251,0.234 0.252,0.155 0.378,0.448 0.378,0.878 l 0,5.026 c 0,0.436 -0.126,0.733 -0.378,0.888 -0.252,0.156 -0.669,0.233 -1.251,0.233 l 0,3.685 10.517,0 c 0.973,0 1.792,-0.097 2.457,-0.288 0.667,-0.192 1.199,-0.467 1.6,-0.824 0.401,-0.358 0.684,-0.785 0.854,-1.282 0.168,-0.496 0.253,-1.049 0.253,-1.658 0,-1.112 -0.268,-2.001 -0.804,-2.666 -0.537,-0.665 -1.395,-1.025 -2.573,-1.077 l 0,-0.12 c 0.569,-0.04 1.041,-0.146 1.416,-0.317 0.374,-0.173 0.669,-0.396 0.883,-0.671 0.215,-0.275 0.368,-0.606 0.457,-0.993 0.089,-0.388 0.133,-0.826 0.133,-1.316 l 0,-0.526 c 0,-0.166 0.044,-0.309 0.13,-0.432 0.086,-0.122 0.219,-0.184 0.398,-0.184 0.191,0 0.327,0.062 0.407,0.184 0.078,0.123 0.118,0.266 0.118,0.432 l 0,2.522 1.143,0 0,-2.522 c 0,-0.477 -0.071,-0.915 -0.214,-1.316 -0.142,-0.401 -0.377,-0.749 -0.7,-1.047 -0.323,-0.298 -0.751,-0.528 -1.282,-0.691 -0.529,-0.162 -1.18,-0.243 -1.956,-0.243 -0.774,0 -1.408,0.085 -1.901,0.253 -0.493,0.169 -0.879,0.402 -1.157,0.7 -0.278,0.298 -0.471,0.644 -0.581,1.039 -0.109,0.393 -0.163,0.808 -0.163,1.245 l 0,0.765 c 0,0.529 -0.03,0.958 -0.09,1.286 -0.06,0.328 -0.158,0.582 -0.293,0.765 -0.136,0.182 -0.312,0.303 -0.532,0.362 -0.218,0.06 -0.482,0.09 -0.794,0.09 l -0.237,0 0,-1.421 c 0,-0.35 0.097,-0.604 0.292,-0.759 0.195,-0.156 0.544,-0.234 1.048,-0.234 l 0,-3.683 -8.829,0 z M -113.675,0 l 0,-5.82 -3.268,0 c 0,0.445 -0.011,0.83 -0.035,1.157 -0.022,0.329 -0.074,0.593 -0.153,0.795 -0.08,0.201 -0.2,0.351 -0.363,0.446 -0.162,0.097 -0.379,0.144 -0.651,0.144 l -0.615,0 0,-6.554 c 0,-0.43 0.126,-0.723 0.377,-0.878 0.252,-0.156 0.669,-0.234 1.252,-0.234 l 0,-3.683 -9.107,0 0,3.683 c 0.583,0 0.998,0.078 1.247,0.234 0.248,0.155 0.372,0.448 0.372,0.878 l 0,6.554 -0.605,0 c -0.273,0 -0.489,-0.047 -0.651,-0.144 -0.162,-0.095 -0.285,-0.245 -0.368,-0.446 -0.082,-0.202 -0.133,-0.466 -0.153,-0.795 -0.021,-0.327 -0.03,-0.712 -0.03,-1.157 l -3.278,0 0,5.82 16.029,0 z m -17.2,-5.313 -3.277,0 c -0.053,0.338 -0.171,0.652 -0.353,0.943 -0.182,0.291 -0.405,0.543 -0.67,0.755 -0.265,0.212 -0.559,0.376 -0.884,0.491 -0.325,0.117 -0.659,0.174 -1.004,0.174 -0.416,0 -0.754,-0.079 -1.012,-0.238 -0.258,-0.159 -0.387,-0.381 -0.387,-0.666 0,-0.271 0.116,-0.491 0.347,-0.659 0.233,-0.169 0.537,-0.315 0.914,-0.438 0.377,-0.123 0.808,-0.24 1.291,-0.352 0.483,-0.113 0.974,-0.252 1.475,-0.417 0.499,-0.165 0.991,-0.366 1.475,-0.601 0.483,-0.235 0.913,-0.536 1.29,-0.904 0.378,-0.367 0.683,-0.816 0.914,-1.345 0.232,-0.53 0.348,-1.166 0.348,-1.907 0,-0.787 -0.17,-1.46 -0.507,-2.016 -0.338,-0.556 -0.791,-1.013 -1.36,-1.37 -0.57,-0.358 -1.225,-0.619 -1.967,-0.785 -0.741,-0.165 -1.508,-0.248 -2.303,-0.248 -0.775,0 -1.516,0.09 -2.22,0.269 -0.705,0.178 -1.425,0.469 -2.16,0.873 l 0,-0.873 -3.277,0 0,5.411 3.277,0 c 0.192,-0.774 0.575,-1.386 1.152,-1.832 0.576,-0.447 1.225,-0.671 1.946,-0.671 0.484,0 0.845,0.092 1.083,0.274 0.238,0.182 0.357,0.389 0.357,0.621 0,0.364 -0.196,0.645 -0.591,0.844 -0.394,0.198 -0.882,0.376 -1.463,0.531 -0.583,0.155 -1.222,0.331 -1.913,0.526 -0.691,0.195 -1.33,0.477 -1.911,0.844 -0.583,0.368 -1.071,0.852 -1.465,1.455 -0.395,0.603 -0.591,1.39 -0.591,2.364 0,0.721 0.155,1.361 0.467,1.917 0.311,0.555 0.728,1.023 1.25,1.405 0.524,0.38 1.128,0.668 1.812,0.863 0.686,0.195 1.41,0.293 2.17,0.293 1.054,0 1.957,-0.122 2.712,-0.367 0.754,-0.246 1.34,-0.504 1.758,-0.775 l 0,0.924 3.277,0 0,-5.313 z M -145.026,0 l 0,-3.685 c -0.583,0 -0.965,-0.095 -1.147,-0.288 -0.182,-0.192 -0.274,-0.469 -0.274,-0.833 l 0,-9.821 -5.968,0 -5.183,8.112 0,-3.436 c 0,-0.43 0.125,-0.703 0.377,-0.819 0.251,-0.116 0.668,-0.174 1.251,-0.174 l 0,-3.683 -6.832,0 0,3.683 c 0.583,0 1,0.078 1.252,0.234 0.251,0.155 0.377,0.448 0.377,0.878 l 0,5.026 c 0,0.436 -0.126,0.733 -0.377,0.888 -0.252,0.156 -0.669,0.233 -1.252,0.233 l 0,3.685 7.805,0 4.966,-7.776 0,2.97 c 0,0.436 -0.092,0.733 -0.273,0.888 -0.182,0.156 -0.565,0.233 -1.147,0.233 l 0,3.685 6.425,0 z m -29.306,-7.329 c 0,-0.801 0.03,-1.471 0.09,-2.011 0.059,-0.54 0.164,-0.977 0.313,-1.311 0.149,-0.334 0.348,-0.575 0.6,-0.724 0.252,-0.149 0.577,-0.225 0.974,-0.225 0.377,0 0.695,0.076 0.953,0.225 0.259,0.149 0.462,0.39 0.611,0.724 0.149,0.334 0.253,0.771 0.312,1.311 0.061,0.54 0.09,1.21 0.09,2.011 0,0.787 -0.029,1.457 -0.09,2.006 -0.059,0.55 -0.163,0.99 -0.312,1.321 -0.149,0.331 -0.352,0.571 -0.611,0.72 -0.258,0.149 -0.576,0.223 -0.953,0.223 -0.397,0 -0.722,-0.074 -0.974,-0.223 -0.252,-0.149 -0.451,-0.389 -0.6,-0.72 -0.149,-0.331 -0.254,-0.771 -0.313,-1.321 -0.06,-0.549 -0.09,-1.219 -0.09,-2.006 m -6.673,0 c 0,1.278 0.21,2.398 0.631,3.362 0.42,0.963 1.014,1.768 1.783,2.418 0.768,0.649 1.679,1.135 2.735,1.46 1.057,0.323 2.223,0.486 3.501,0.486 1.271,0 2.436,-0.163 3.496,-0.486 1.058,-0.325 1.971,-0.811 2.736,-1.46 0.764,-0.65 1.356,-1.455 1.777,-2.418 0.42,-0.964 0.63,-2.084 0.63,-3.362 0,-1.271 -0.21,-2.388 -0.63,-3.352 -0.421,-0.963 -1.013,-1.771 -1.777,-2.422 -0.765,-0.653 -1.678,-1.141 -2.736,-1.465 -1.06,-0.325 -2.225,-0.487 -3.496,-0.487 -1.278,0 -2.444,0.162 -3.501,0.487 -1.056,0.324 -1.967,0.812 -2.735,1.465 -0.769,0.651 -1.363,1.459 -1.783,2.422 -0.421,0.964 -0.631,2.081 -0.631,3.352 m -8.62,7.726 c 0.444,0 0.86,-0.036 1.247,-0.109 0.387,-0.073 0.739,-0.168 1.057,-0.283 0.319,-0.116 0.593,-0.238 0.824,-0.368 0.233,-0.129 0.421,-0.246 0.567,-0.352 l 0,0.715 3.277,0 0,-5.413 -3.475,0 c 0,0.444 -0.055,0.815 -0.165,1.113 -0.109,0.298 -0.255,0.539 -0.437,0.725 -0.182,0.185 -0.395,0.318 -0.64,0.397 -0.245,0.079 -0.51,0.119 -0.795,0.119 -0.39,0 -0.725,-0.074 -1.002,-0.223 -0.278,-0.149 -0.506,-0.389 -0.681,-0.72 -0.175,-0.331 -0.308,-0.771 -0.397,-1.321 -0.089,-0.549 -0.134,-1.219 -0.134,-2.006 0,-0.801 0.047,-1.471 0.144,-2.011 0.096,-0.54 0.242,-0.977 0.437,-1.311 0.195,-0.334 0.445,-0.575 0.749,-0.724 0.305,-0.149 0.67,-0.225 1.093,-0.225 0.285,0 0.559,0.056 0.824,0.165 0.265,0.109 0.499,0.276 0.7,0.502 0.203,0.224 0.361,0.505 0.477,0.844 0.115,0.337 0.174,0.744 0.174,1.22 l 3.455,0 c 0,-0.84 -0.132,-1.635 -0.396,-2.382 -0.265,-0.749 -0.68,-1.404 -1.242,-1.966 -0.563,-0.564 -1.278,-1.011 -2.145,-1.342 -0.868,-0.331 -1.896,-0.496 -3.089,-0.496 -1.072,0 -2.086,0.146 -3.043,0.437 -0.957,0.292 -1.791,0.748 -2.503,1.371 -0.712,0.622 -1.274,1.421 -1.688,2.398 -0.413,0.976 -0.621,2.149 -0.621,3.52 0,1.371 0.211,2.544 0.631,3.521 0.421,0.976 0.977,1.775 1.669,2.398 0.691,0.621 1.481,1.079 2.368,1.37 0.887,0.291 1.808,0.437 2.76,0.437"
             style="fill:#243d95;fill-opacity:1;fill-rule:nonzero;stroke:none"
             id="path5478"
             inkscape:connector-curvature="0" /></g><g
           id="g5480"
           transform="translate(52.0381,81.4131)"><path
             d="m 0,0 0,1.624 c 0.257,0 0.441,0.034 0.552,0.102 0.111,0.069 0.166,0.198 0.166,0.387 l 0,2.215 C 0.718,4.521 0.663,4.651 0.552,4.719 0.441,4.788 0.257,4.823 0,4.823 l 0,1.623 6.056,0 0,-2.477 -1.531,0 C 4.525,4.15 4.517,4.296 4.499,4.405 4.481,4.514 4.449,4.6 4.4,4.663 4.352,4.726 4.289,4.768 4.208,4.79 4.127,4.812 4.027,4.823 3.908,4.823 l -0.608,0 0,-1.265 1.395,0 0,-0.77 -1.395,0 0,-0.675 C 3.3,1.959 3.339,1.839 3.416,1.753 3.493,1.667 3.634,1.624 3.838,1.624 l 0.446,0 L 4.284,0 0,0 Z m -5.08,3.216 c 0,-0.352 0.013,-0.648 0.039,-0.885 0.027,-0.239 0.072,-0.431 0.138,-0.578 0.066,-0.147 0.154,-0.254 0.264,-0.32 0.112,-0.065 0.254,-0.098 0.43,-0.098 0.167,0 0.306,0.033 0.419,0.098 0.115,0.066 0.204,0.173 0.269,0.32 0.066,0.147 0.113,0.339 0.139,0.578 0.026,0.237 0.04,0.533 0.04,0.885 0,0.348 -0.014,0.642 -0.04,0.885 C -3.408,4.343 -3.455,4.536 -3.521,4.682 -3.586,4.828 -3.675,4.934 -3.79,5 -3.903,5.065 -4.042,5.099 -4.209,5.099 -4.385,5.099 -4.527,5.065 -4.639,5 -4.749,4.934 -4.837,4.828 -4.903,4.682 -4.969,4.536 -5.014,4.343 -5.041,4.101 -5.067,3.858 -5.08,3.564 -5.08,3.216 m -2.941,0 c 0,0.564 0.093,1.057 0.278,1.482 0.185,0.424 0.448,0.78 0.785,1.066 0.34,0.285 0.741,0.499 1.206,0.642 0.466,0.144 0.98,0.215 1.543,0.215 0.56,0 1.073,-0.071 1.54,-0.215 C -2.203,6.263 -1.8,6.049 -1.462,5.764 -1.126,5.478 -0.865,5.122 -0.68,4.698 -0.494,4.273 -0.402,3.78 -0.402,3.216 -0.402,2.656 -0.494,2.164 -0.68,1.739 -0.865,1.315 -1.126,0.959 -1.462,0.671 -1.8,0.385 -2.203,0.169 -2.669,0.026 c -0.467,-0.143 -0.98,-0.214 -1.54,-0.214 -0.563,0 -1.077,0.071 -1.543,0.214 -0.465,0.143 -0.866,0.359 -1.206,0.645 -0.337,0.288 -0.6,0.644 -0.785,1.068 -0.185,0.425 -0.278,0.917 -0.278,1.477"
             style="fill:#243d95;fill-opacity:1;fill-rule:nonzero;stroke:none"
             id="path5482"
             inkscape:connector-curvature="0" /></g><g
           id="g5484"
           transform="translate(83.8169,79.9341)"><path
             d="M 0,0 C 1.171,0 1.992,-0.181 2.459,-0.547 2.927,-0.916 3.163,-1.52 3.163,-2.363 l 0,-3.766 -8.052,0 0,3.766 c 0,0.843 0.23,1.447 0.69,1.816 C -3.74,-0.181 -2.917,0 -1.73,0 l 0,8.685 -20.807,0 0,-8.685 c 1.374,0 2.357,-0.181 2.949,-0.547 0.594,-0.369 0.89,-1.066 0.89,-2.097 l 0,-11.842 c 0,-1.015 -0.296,-1.706 -0.89,-2.072 -0.592,-0.365 -1.575,-0.55 -2.949,-0.55 l 0,-8.68 20.807,0 0,8.68 c -1.187,0 -2.01,0.185 -2.469,0.55 -0.46,0.366 -0.69,0.965 -0.69,1.792 l 0,4.351 8.052,0 0,-4.351 c 0,-0.827 -0.236,-1.426 -0.704,-1.792 -0.467,-0.365 -1.288,-0.55 -2.459,-0.55 l 0,-8.68 20.786,0 0,8.68 c -1.375,0 -2.355,0.185 -2.94,0.55 -0.582,0.366 -0.875,1.057 -0.875,2.072 l 0,11.842 c 0,1.031 0.293,1.728 0.875,2.097 C 18.431,-0.181 19.411,0 20.786,0 l 0,8.685 L 0,8.685 0,0 Z m 89.476,-3.789 c 0,1.06 -0.251,1.957 -0.75,2.692 C 88.226,-0.366 87.323,0 86.012,0 l -2.528,0 0,-7.535 2.528,0 c 1.311,0 2.214,0.343 2.714,1.03 0.499,0.687 0.75,1.591 0.75,2.716 m 13.186,5.829 c 0.4,-1.39 0.597,-2.921 0.597,-4.588 0,-1.686 -0.197,-3.177 -0.597,-4.472 -0.399,-1.295 -1.066,-2.398 -2.011,-3.313 -0.944,-0.912 -2.197,-1.598 -3.757,-2.057 -1.561,-0.461 -3.496,-0.691 -5.805,-0.691 l -7.605,0 0,-1.405 c 0,-0.828 0.206,-1.47 0.62,-1.931 0.413,-0.458 1.167,-0.691 2.258,-0.691 l 2.389,0 0,-8.68 -22.913,0 0,8.68 c 1.371,0 2.354,0.185 2.949,0.55 0.591,0.366 0.887,1.057 0.887,2.072 l 0,11.842 c 0,1.031 -0.296,1.728 -0.887,2.097 C 68.192,-0.181 67.209,0 65.838,0 l 0,8.685 25.251,0 c 2.309,0 4.244,-0.274 5.805,-0.817 1.56,-0.548 2.813,-1.308 3.757,-2.285 0.945,-0.973 1.612,-2.157 2.011,-3.543 M 122.359,0 l 0,-6.225 7.465,0 0,-4.142 -7.465,0 0,-6.741 4.212,0 c 0.639,0 1.174,0.055 1.603,0.166 0.429,0.109 0.773,0.315 1.031,0.62 0.257,0.303 0.432,0.722 0.524,1.25 0.095,0.53 0.144,1.209 0.144,2.036 l 8.19,0 0,-12.752 -33.352,0 0,8.68 c 1.373,0 2.357,0.185 2.948,0.55 0.595,0.366 0.891,1.057 0.891,2.072 l 0,11.842 c 0,1.031 -0.296,1.728 -0.891,2.097 C 107.068,-0.181 106.084,0 104.711,0 l 0,8.685 33.352,0 0,-12.756 -8.19,0 c 0,0.826 -0.049,1.508 -0.144,2.036 -0.092,0.53 -0.267,0.945 -0.524,1.241 -0.258,0.294 -0.602,0.505 -1.031,0.619 C 127.745,-0.058 127.21,0 126.571,0 l -4.212,0 z"
             style="fill:#243d95;fill-opacity:1;fill-rule:nonzero;stroke:none"
             id="path5486"
             inkscape:connector-curvature="0" /></g><g
           id="g5488"
           transform="translate(132.2012,104.8271)"><path
             d="M 0,0 -1.408,-25.232 12.207,-6.552 1.961,-27.315 26.16,-13.224 4.193,-30.59 32.032,-27.559 4.9,-34.49 31.564,-43.044 3.96,-38.342 24.84,-57.001 1.535,-41.476 13.02,-67.014 l -14.975,23.661 0.104,-28.001 -4.057,27.706 -11.293,-25.623 7.562,26.96 -20.739,-18.813 17.876,21.554 -26.6,-8.753 25.098,12.421 -27.861,2.822 27.98,1.139 -24.303,13.91 L -12.164,-28.37 -25.445,-9.938 -9.14,-25.81 -14.452,-1.062 -5.336,-24.699 0,0 Z"
             style="fill:#ffffff;fill-opacity:1;fill-rule:nonzero;stroke:none"
             id="path5490"
             inkscape:connector-curvature="0" /></g><g
           id="g5492"
           transform="translate(141.8271,84.9668)"><path
             d="m 0,0 c -1.805,1.53 -3.955,2.675 -6.448,3.442 -2.498,0.763 -5.242,1.145 -8.24,1.145 -3.011,0 -5.76,-0.382 -8.247,-1.145 C -25.427,2.675 -27.574,1.53 -29.384,0 c -1.813,-1.526 -3.212,-3.429 -4.202,-5.698 -0.992,-2.27 -1.485,-4.911 -1.485,-7.924 0,-2.993 0.493,-5.627 1.485,-7.899 0.99,-2.267 2.389,-4.172 4.202,-5.708 1.81,-1.537 3.957,-2.689 6.449,-3.452 2.487,-0.767 5.236,-1.149 8.247,-1.149 2.998,0 5.742,0.382 8.24,1.149 2.493,0.763 4.643,1.915 6.448,3.452 1.8,1.536 3.196,3.441 4.189,5.708 0.989,2.272 1.486,4.906 1.486,7.899 0,3.013 -0.497,5.654 -1.486,7.924 C 3.196,-3.429 1.8,-1.526 0,0"
             style="fill:#243d95;fill-opacity:1;fill-rule:nonzero;stroke:none"
             id="path5494"
             inkscape:connector-curvature="0" /></g><g
           id="g5496"><g
             id="g5498" /><g
             id="g5504"><g
               clip-path="url(#clipPath5500)"
               id="g5506"
               style="opacity:0.14999402"><g
                 transform="translate(241.2041,102.9185)"
                 id="g5508"><path
                   d="m 0,0 c 0,-13.528 -51.461,-24.494 -114.941,-24.494 -63.48,0 -114.942,10.966 -114.942,24.494 0,13.528 51.462,24.494 114.942,24.494 C -51.461,24.494 0,13.528 0,0"
                   style="fill:#ffffff;fill-opacity:1;fill-rule:nonzero;stroke:none"
                   id="path5510"
                   inkscape:connector-curvature="0" /></g></g></g></g><g
           id="g5512"
           transform="translate(176.5547,43.4336)"><path
             d="M 0,0 C -0.102,0.344 -0.207,0.642 -0.318,0.895 -0.429,1.146 -0.545,1.443 -0.666,1.787 -0.904,0.979 -1.123,0.197 -1.321,-0.561 -1.52,-1.317 -1.692,-2.075 -1.842,-2.833 -1.989,-3.59 -2.104,-4.357 -2.184,-5.134 -2.263,-5.912 -2.302,-6.714 -2.302,-7.543 l 0,-0.849 c 0,-0.281 0.02,-0.565 0.061,-0.846 0.857,0.967 1.502,2.014 1.931,3.134 0.428,1.121 0.643,2.288 0.643,3.5 C 0.333,-1.797 0.222,-0.93 0,0 M 0.484,1.817 C 0.687,1.01 0.837,0.262 0.939,-0.424 1.04,-1.11 1.09,-1.777 1.09,-2.424 1.09,-3.09 1.03,-3.731 0.91,-4.347 0.79,-4.963 0.595,-5.573 0.324,-6.18 0.055,-6.786 -0.285,-7.406 -0.695,-8.042 -1.105,-8.68 -1.591,-9.35 -2.15,-10.057 c 0.04,-0.525 0.116,-1.106 0.226,-1.741 0.111,-0.637 0.268,-1.197 0.47,-1.681 0.019,0.019 0.051,0.04 0.091,0.06 0.041,0.02 0.069,0.03 0.092,0.03 0.019,0 0.049,0.01 0.089,0.031 0.04,0.019 0.096,0.03 0.167,0.03 l 0.197,0 c 0.181,0 0.383,-0.04 0.606,-0.121 0.101,-0.041 0.15,-0.112 0.15,-0.212 0,-0.101 -0.054,-0.223 -0.166,-0.364 -0.111,-0.141 -0.247,-0.282 -0.409,-0.424 -0.161,-0.141 -0.332,-0.268 -0.514,-0.379 -0.182,-0.11 -0.344,-0.176 -0.485,-0.196 -0.242,0.201 -0.451,0.474 -0.625,0.818 -0.175,0.342 -0.334,0.711 -0.478,1.104 -0.146,0.394 -0.269,0.783 -0.372,1.167 -0.104,0.384 -0.198,0.727 -0.28,1.03 -0.041,0 -0.102,-0.039 -0.183,-0.121 -0.081,-0.081 -0.162,-0.121 -0.242,-0.121 -0.122,0 -0.183,0.13 -0.183,0.393 0,0.183 0.076,0.328 0.228,0.44 0.152,0.11 0.237,0.186 0.257,0.226 l 0,0.213 c 0,0.505 -0.02,0.97 -0.06,1.393 -0.041,0.423 -0.061,0.969 -0.061,1.636 0,0.465 0.016,1.01 0.045,1.636 0.031,0.626 0.096,1.413 0.196,2.362 0.021,0.344 0.097,0.894 0.229,1.652 0.13,0.757 0.303,1.529 0.515,2.316 0.212,0.788 0.464,1.481 0.756,2.076 0.293,0.595 0.631,0.913 1.016,0.954 0.121,0 0.252,-0.082 0.394,-0.242 0.14,-0.163 0.272,-0.364 0.393,-0.606 C 0.03,3.06 0.141,2.802 0.242,2.529 0.343,2.257 0.424,2.019 0.484,1.817"
             style="fill:#87431e;fill-opacity:1;fill-rule:nonzero;stroke:none"
             id="path5514"
             inkscape:connector-curvature="0" /></g><g
           id="g5516"
           transform="translate(180.4619,38.1514)"><path
             d="m 0,0 c -0.159,-0.72 -0.518,-1.078 -1.075,-1.078 -0.08,0 -0.219,0.019 -0.418,0.059 -0.238,0.04 -0.403,0.179 -0.492,0.419 -0.09,0.241 -0.135,0.48 -0.135,0.72 0,0.179 0.01,0.299 0.029,0.359 0.02,0.101 0.061,0.225 0.12,0.375 0.06,0.15 0.134,0.29 0.224,0.419 0.09,0.13 0.194,0.246 0.313,0.346 0.12,0.1 0.259,0.15 0.418,0.15 0.06,-0.021 0.15,-0.106 0.269,-0.255 0.12,-0.15 0.234,-0.325 0.345,-0.525 0.108,-0.2 0.204,-0.395 0.282,-0.585 C -0.04,0.215 0,0.079 0,0 M 1.121,-7.834 C 1.081,-8.076 0.975,-8.309 0.803,-8.531 0.631,-8.753 0.413,-8.864 0.151,-8.864 c -0.04,0 -0.064,0.005 -0.075,0.015 -0.011,0.01 -0.036,0.015 -0.076,0.015 -0.423,0.081 -0.772,0.238 -1.045,0.47 -0.272,0.231 -0.494,0.519 -0.666,0.864 -0.172,0.343 -0.288,0.716 -0.349,1.12 -0.06,0.404 -0.09,0.808 -0.09,1.212 0,0.383 0.019,0.758 0.061,1.12 0.039,0.364 0.09,0.697 0.151,1 0.04,0.161 0.1,0.353 0.182,0.576 0.08,0.222 0.241,0.333 0.484,0.333 0.283,-0.06 0.464,-0.222 0.545,-0.485 0.081,-0.263 0.122,-0.576 0.122,-0.939 0,-0.162 -0.006,-0.328 -0.015,-0.5 -0.011,-0.17 -0.016,-0.347 -0.016,-0.53 0,-0.362 0.035,-0.716 0.106,-1.06 0.071,-0.344 0.227,-0.626 0.469,-0.847 C 0.061,-6.602 0.187,-6.688 0.318,-6.758 0.449,-6.829 0.576,-6.905 0.696,-6.985 0.818,-7.066 0.918,-7.162 1,-7.273 1.081,-7.384 1.121,-7.512 1.121,-7.652 l 0,-0.182 z"
             style="fill:#87431e;fill-opacity:1;fill-rule:nonzero;stroke:none"
             id="path5518"
             inkscape:connector-curvature="0" /></g><g
           id="g5520"
           transform="translate(188.8223,37.6816)"><path
             d="m 0,0 c -0.243,-0.041 -0.545,-0.077 -0.909,-0.109 -0.362,-0.031 -0.716,-0.046 -1.06,-0.046 l -0.364,0 c -0.12,0 -0.231,0.011 -0.333,0.031 l 0,-3.212 c 0,-0.504 0.006,-1.014 0.016,-1.529 0.01,-0.515 0.035,-1.066 0.076,-1.651 0.019,-0.121 0.035,-0.268 0.045,-0.44 0.01,-0.171 0.035,-0.307 0.076,-0.408 0.039,-0.102 0.07,-0.218 0.091,-0.348 0.019,-0.132 0.029,-0.268 0.029,-0.409 0,-0.162 -0.029,-0.304 -0.09,-0.425 -0.06,-0.12 -0.192,-0.201 -0.393,-0.242 -0.082,0 -0.157,0.011 -0.229,0.029 -0.071,0.022 -0.125,0.041 -0.165,0.062 -0.324,0.102 -0.526,0.212 -0.606,0.333 -0.082,0.122 -0.122,0.262 -0.122,0.424 0,0.061 0.005,0.131 0.015,0.212 0.011,0.081 0.016,0.171 0.016,0.273 0.032,0.364 0.056,0.848 0.073,1.454 0.015,0.605 0.027,1.231 0.035,1.878 0.009,0.646 0.013,1.276 0.013,1.894 l 0,1.5 c -0.021,0 -0.03,0.033 -0.03,0.105 l 0,0.529 c -0.102,0.021 -0.207,0.032 -0.319,0.032 l -0.317,0 -0.939,0 c -0.283,0 -0.636,0.02 -1.06,0.061 -0.425,0.042 -0.799,0.115 -1.121,0.22 0.161,0.095 0.419,0.18 0.772,0.257 0.353,0.075 0.727,0.137 1.12,0.184 0.394,0.048 0.762,0.086 1.107,0.114 0.342,0.029 0.585,0.053 0.726,0.072 -0.018,0.567 -0.04,1.042 -0.067,1.428 -0.027,0.385 -0.055,0.745 -0.081,1.079 -0.027,0.334 -0.049,0.69 -0.068,1.064 -0.017,0.374 -0.026,0.855 -0.026,1.443 0,0.304 0.021,0.68 0.061,1.125 0.04,0.447 0.126,0.881 0.257,1.307 0.131,0.426 0.323,0.785 0.576,1.079 0.252,0.294 0.59,0.441 1.014,0.441 0.566,0 1.019,-0.197 1.365,-0.591 C -0.475,8.826 -0.202,8.321 0,7.706 0.201,7.09 0.343,6.408 0.424,5.661 0.505,4.914 0.564,4.188 0.606,3.48 0.484,3.904 0.379,4.258 0.288,4.54 0.198,4.822 0.116,5.071 0.046,5.283 c -0.072,0.212 -0.142,0.409 -0.212,0.59 -0.07,0.182 -0.157,0.384 -0.258,0.606 -0.202,0.445 -0.414,0.782 -0.637,1.014 -0.222,0.233 -0.503,0.35 -0.847,0.35 -0.201,0 -0.359,-0.121 -0.47,-0.364 C -2.489,7.238 -2.574,6.967 -2.635,6.666 -2.695,6.364 -2.73,6.068 -2.74,5.775 -2.751,5.484 -2.756,5.288 -2.756,5.188 l 0,-0.664 c 0,-0.221 0.005,-0.487 0.016,-0.799 0.01,-0.311 0.013,-0.682 0.013,-1.116 l 0,-1.584 c 0.325,0 0.637,0.041 0.94,0.122 0.303,0.082 0.617,0.163 0.939,0.243 0.202,0.182 0.393,0.334 0.576,0.455 0.181,0.12 0.414,0.18 0.696,0.18 0.162,0 0.344,-0.089 0.545,-0.271 C 1.172,1.572 1.272,1.349 1.272,1.088 1.272,0.943 1.253,0.829 1.212,0.746 1.091,0.436 0.929,0.249 0.728,0.188 0.524,0.124 0.282,0.062 0,0"
             style="fill:#87431e;fill-opacity:1;fill-rule:nonzero;stroke:none"
             id="path5522"
             inkscape:connector-curvature="0" /></g><g
           id="g5524"
           transform="translate(190.9736,33.3164)"><path
             d="M 0,0 C 0.182,0 0.383,0.005 0.604,0.016 0.827,0.025 1.049,0.035 1.272,0.045 1.493,0.056 1.705,0.07 1.907,0.092 2.108,0.109 2.271,0.121 2.393,0.121 2.372,0.349 2.267,0.603 2.075,0.882 1.882,1.16 1.574,1.32 1.15,1.363 0.867,1.363 0.57,1.229 0.257,0.961 -0.057,0.691 -0.212,0.371 -0.212,0 L 0,0 Z m 4.24,-0.879 c -0.283,-0.02 -0.551,-0.03 -0.802,-0.03 l -0.773,0 c -0.485,0 -0.97,0.005 -1.453,0.015 -0.485,0.01 -0.991,0.015 -1.516,0.015 0,-0.04 -0.005,-0.07 -0.014,-0.091 -0.011,-0.02 -0.015,-0.051 -0.015,-0.09 0,-0.303 0.085,-0.632 0.257,-0.985 0.171,-0.353 0.429,-0.53 0.772,-0.53 0.101,0.019 0.212,0.04 0.333,0.06 0.121,0.02 0.232,0.032 0.333,0.032 0.101,0 0.183,-0.012 0.243,-0.032 0.162,-0.06 0.277,-0.166 0.347,-0.317 0.071,-0.152 0.107,-0.298 0.107,-0.439 l 0,-0.273 c 0,-0.081 -0.01,-0.163 -0.031,-0.243 -0.08,-0.242 -0.282,-0.363 -0.605,-0.363 -0.343,0 -0.656,0.077 -0.94,0.227 -0.282,0.152 -0.514,0.298 -0.695,0.44 -0.364,0.282 -0.677,0.63 -0.939,1.045 -0.263,0.413 -0.394,0.933 -0.394,1.559 0,0.425 0.05,0.834 0.15,1.228 0.101,0.393 0.263,0.742 0.485,1.045 0.222,0.302 0.501,0.549 0.834,0.742 0.333,0.192 0.731,0.287 1.196,0.287 0.222,0 0.485,-0.035 0.787,-0.107 C 2.211,2.246 2.498,2.131 2.771,1.968 3.044,1.807 3.291,1.595 3.513,1.333 3.736,1.07 3.877,0.747 3.938,0.363 4.139,0.383 4.352,0.444 4.573,0.546 4.735,0.605 4.886,0.682 5.028,0.771 5.169,0.863 5.33,0.908 5.513,0.908 5.815,0.908 6.021,0.792 6.134,0.56 6.245,0.328 6.301,0.131 6.301,-0.03 6.301,-0.172 6.209,-0.293 6.028,-0.394 5.846,-0.495 5.639,-0.581 5.407,-0.651 5.174,-0.723 4.941,-0.778 4.709,-0.818 4.478,-0.858 4.32,-0.879 4.24,-0.879"
             style="fill:#87431e;fill-opacity:1;fill-rule:nonzero;stroke:none"
             id="path5526"
             inkscape:connector-curvature="0" /></g><g
           id="g5528"
           transform="translate(201.1504,34.6797)"><path
             d="m 0,0 c -0.162,0 -0.363,-0.051 -0.605,-0.151 -0.244,-0.102 -0.47,-0.229 -0.682,-0.379 -0.212,-0.152 -0.394,-0.324 -0.545,-0.516 -0.152,-0.191 -0.229,-0.378 -0.229,-0.559 0.062,-0.204 0.168,-0.36 0.32,-0.471 0.151,-0.111 0.312,-0.201 0.485,-0.272 0.17,-0.071 0.343,-0.127 0.514,-0.167 0.172,-0.04 0.298,-0.091 0.379,-0.151 0.1,-0.061 0.217,-0.131 0.348,-0.212 0.131,-0.082 0.197,-0.202 0.197,-0.363 0,-0.222 -0.101,-0.475 -0.302,-0.758 -0.203,-0.282 -0.445,-0.556 -0.729,-0.818 -0.282,-0.262 -0.58,-0.484 -0.892,-0.666 -0.314,-0.181 -0.581,-0.274 -0.803,-0.274 -0.081,0 -0.132,0.012 -0.151,0.032 -0.121,0.04 -0.212,0.096 -0.274,0.166 -0.059,0.071 -0.132,0.166 -0.212,0.288 -0.14,0.181 -0.212,0.323 -0.212,0.424 0,0.161 0.152,0.283 0.455,0.363 0.444,0.102 0.853,0.248 1.226,0.44 0.374,0.192 0.562,0.378 0.562,0.56 -0.041,0.162 -0.177,0.279 -0.41,0.348 -0.232,0.071 -0.474,0.141 -0.727,0.212 -0.252,0.071 -0.489,0.156 -0.712,0.258 -0.223,0.101 -0.344,0.263 -0.363,0.484 -0.02,0.061 -0.031,0.153 -0.031,0.274 0,0.342 0.086,0.671 0.259,0.983 0.17,0.313 0.387,0.597 0.651,0.85 0.261,0.252 0.554,0.483 0.879,0.696 0.322,0.212 0.625,0.388 0.908,0.529 l 0.18,0.243 c 0.103,0.162 0.223,0.297 0.365,0.409 0.141,0.11 0.312,0.166 0.514,0.166 0.263,0 0.455,-0.091 0.576,-0.272 C 1.061,1.514 1.121,1.313 1.121,1.09 1.121,0.707 1.021,0.428 0.818,0.258 0.616,0.085 0.344,0 0,0"
             style="fill:#87431e;fill-opacity:1;fill-rule:nonzero;stroke:none"
             id="path5530"
             inkscape:connector-curvature="0" /></g><g
           id="g5532"
           transform="translate(208.2383,32.6201)"><path
             d="m 0,0 c 0,-0.344 -0.035,-0.712 -0.105,-1.105 -0.072,-0.394 -0.197,-0.763 -0.378,-1.107 -0.183,-0.343 -0.415,-0.631 -0.698,-0.863 -0.284,-0.233 -0.636,-0.349 -1.061,-0.349 -0.746,0 -1.362,0.257 -1.847,0.774 -0.485,0.514 -0.727,1.144 -0.727,1.892 0,0.142 0.045,0.348 0.136,0.621 0.092,0.273 0.202,0.545 0.334,0.818 0.131,0.273 0.282,0.515 0.454,0.727 0.171,0.212 0.337,0.318 0.5,0.318 0.242,0 0.363,-0.122 0.363,-0.363 0,-0.263 -0.065,-0.52 -0.197,-0.773 -0.131,-0.252 -0.196,-0.53 -0.196,-0.832 0,-0.405 0.091,-0.742 0.272,-1.015 0.181,-0.273 0.485,-0.409 0.908,-0.409 0.606,0 0.91,0.303 0.91,0.908 0,0.565 -0.065,0.994 -0.197,1.287 -0.132,0.293 -0.284,0.516 -0.454,0.667 -0.172,0.151 -0.324,0.268 -0.455,0.348 -0.131,0.08 -0.197,0.201 -0.197,0.364 0,0.322 0.071,0.606 0.212,0.847 0.141,0.242 0.413,0.364 0.818,0.364 0.243,0 0.464,-0.126 0.667,-0.379 C -0.737,2.487 -0.565,2.189 -0.424,1.848 -0.282,1.504 -0.177,1.161 -0.105,0.817 -0.035,0.473 0,0.201 0,0"
             style="fill:#87431e;fill-opacity:1;fill-rule:nonzero;stroke:none"
             id="path5534"
             inkscape:connector-curvature="0" /></g><g
           id="g5536"
           transform="translate(215.2354,29.4082)"><path
             d="m 0,0 c 0,-0.161 -0.051,-0.333 -0.151,-0.515 -0.101,-0.18 -0.253,-0.271 -0.454,-0.271 -0.405,0 -0.723,0.225 -0.955,0.681 -0.232,0.454 -0.44,0.954 -0.621,1.499 -0.182,0.544 -0.348,1.044 -0.5,1.5 C -2.832,3.348 -3.009,3.575 -3.21,3.575 -3.514,3.534 -3.746,3.372 -3.907,3.09 -4.068,2.808 -4.216,2.504 -4.346,2.182 -4.479,1.858 -4.619,1.565 -4.771,1.303 -4.923,1.04 -5.119,0.909 -5.361,0.909 c -0.061,0 -0.096,0.046 -0.107,0.137 -0.01,0.091 -0.015,0.156 -0.015,0.197 0,0.423 0.04,0.837 0.122,1.241 0.08,0.404 0.121,0.819 0.121,1.243 0,0.342 0.064,0.626 0.197,0.848 0.131,0.222 0.368,0.333 0.711,0.333 l 0.243,0 c 0.061,0.121 0.131,0.252 0.211,0.394 0.082,0.14 0.167,0.283 0.259,0.424 0.09,0.14 0.196,0.257 0.317,0.348 0.121,0.09 0.262,0.135 0.425,0.135 0.503,0 0.943,-0.251 1.317,-0.756 0.373,-0.505 0.67,-1.096 0.894,-1.772 0.222,-0.677 0.39,-1.363 0.499,-2.06 C -0.056,0.924 0,0.385 0,0"
             style="fill:#87431e;fill-opacity:1;fill-rule:nonzero;stroke:none"
             id="path5538"
             inkscape:connector-curvature="0" /></g><g
           id="g5540"
           transform="translate(225.4893,19.4277)"><path
             d="m 0,0 c -0.557,-0.758 -1.223,-1.379 -1.999,-1.863 -0.778,-0.485 -1.586,-0.843 -2.424,-1.075 -0.838,-0.232 -1.56,-0.348 -2.166,-0.348 -0.646,0 -1.262,0.048 -1.848,0.144 -0.584,0.099 -1.121,0.271 -1.606,0.517 -0.483,0.245 -0.913,0.586 -1.286,1.02 -0.373,0.434 -0.661,0.984 -0.863,1.65 -0.062,0.203 -0.092,0.445 -0.092,0.727 0,0.646 0.178,1.359 0.53,2.136 0.354,0.778 1.177,1.161 1.016,0.848 -0.161,-0.313 -0.309,-0.687 -0.441,-1.121 -0.13,-0.434 -0.196,-0.893 -0.196,-1.378 0,-0.061 0.006,-0.121 0.016,-0.182 0.01,-0.06 0.014,-0.121 0.014,-0.181 0.061,-0.646 0.238,-1.187 0.531,-1.62 0.293,-0.435 0.656,-0.779 1.09,-1.032 0.435,-0.252 0.923,-0.433 1.469,-0.545 0.546,-0.11 1.101,-0.165 1.666,-0.165 0.444,0 1.01,0.106 1.697,0.318 0.686,0.212 1.353,0.542 1.998,0.986 0.647,0.446 1.202,1.009 1.667,1.686 0.464,0.677 0.697,1.472 0.697,2.383 l 0,0.273 C -0.571,3.766 -0.727,4.246 -1,4.62 -1.272,4.995 -1.606,5.314 -1.999,5.577 -2.394,5.84 -2.817,6.063 -3.271,6.245 c -0.456,0.182 -0.875,0.369 -1.258,0.562 -0.384,0.192 -0.702,0.42 -0.953,0.683 -0.254,0.262 -0.38,0.596 -0.38,1.002 0,0.202 0.066,0.39 0.197,0.562 0.131,0.173 0.288,0.343 0.47,0.515 0.182,0.173 0.363,0.35 0.545,0.532 0.181,0.18 0.333,0.393 0.454,0.637 -0.423,-0.162 -0.949,-0.308 -1.575,-0.439 -0.625,-0.131 -1.211,-0.197 -1.757,-0.197 -0.384,0 -0.657,0.071 -0.818,0.211 -0.162,0.142 -0.242,0.415 -0.242,0.819 0,0.322 0.137,0.742 0.409,1.257 0.273,0.515 0.616,1.015 1.03,1.5 0.414,0.484 0.852,0.903 1.318,1.257 0.464,0.353 0.878,0.53 1.241,0.53 0.121,0 0.282,-0.041 0.485,-0.121 0.202,-0.081 0.302,-0.222 0.302,-0.424 0,-0.323 -0.08,-0.627 -0.242,-0.909 -0.161,-0.284 -0.434,-0.424 -0.817,-0.424 -0.242,0 -0.491,-0.067 -0.743,-0.197 -0.252,-0.131 -0.474,-0.297 -0.666,-0.5 -0.192,-0.203 -0.348,-0.429 -0.469,-0.682 -0.121,-0.252 -0.182,-0.5 -0.182,-0.741 0,-0.264 0.101,-0.414 0.303,-0.454 0.202,-0.041 0.403,-0.061 0.605,-0.061 0.263,0 0.501,0.034 0.713,0.106 0.212,0.071 0.418,0.151 0.621,0.241 0.201,0.092 0.404,0.177 0.605,0.258 0.202,0.081 0.424,0.122 0.668,0.122 l 0.18,0 c 0.142,-0.02 0.278,-0.051 0.41,-0.091 0.13,-0.041 0.196,-0.112 0.196,-0.213 0,-0.02 -0.004,-0.04 -0.015,-0.06 -0.01,-0.02 -0.015,-0.041 -0.015,-0.061 C -2.692,11.021 -2.823,10.672 -3.045,10.421 -3.268,10.168 -3.504,9.956 -3.756,9.784 -4.01,9.612 -4.237,9.451 -4.438,9.299 -4.641,9.148 -4.741,8.962 -4.741,8.739 -4.741,8.617 -4.6,8.492 -4.317,8.36 -4.034,8.229 -3.688,8.063 -3.271,7.86 -2.858,7.658 -2.408,7.417 -1.925,7.134 -1.439,6.852 -0.99,6.513 -0.576,6.119 -0.163,5.725 0.186,5.261 0.469,4.725 0.751,4.19 0.893,3.568 0.893,2.862 l 0,-0.121 C 0.852,1.671 0.555,0.758 0,0"
             style="fill:#87431e;fill-opacity:1;fill-rule:nonzero;stroke:none"
             id="path5542"
             inkscape:connector-curvature="0" /></g><g
           id="g5544"
           transform="translate(191.1543,26.958)"><path
             d="m 0,0 0,-0.307 -0.891,0 0,-0.625 0.879,0 0,-0.305 -0.879,0 0,-1.063 -0.344,0 0,2.3 L 0,0 Z"
             style="fill:#9a9f1c;fill-opacity:1;fill-rule:nonzero;stroke:none"
             id="path5546"
             inkscape:connector-curvature="0" /></g><g
           id="g5548"
           transform="translate(192.3369,25.8096)"><path
             d="m 0,0 c 0,-0.511 0.349,-0.852 0.866,-0.852 0.517,0 0.872,0.345 0.872,0.852 0,0.504 -0.355,0.85 -0.872,0.85 C 0.349,0.85 0,0.508 0,0 m 2.093,0 c 0,-0.683 -0.516,-1.179 -1.224,-1.179 -0.707,0 -1.224,0.496 -1.224,1.179 0,0.681 0.517,1.176 1.224,1.176 C 1.58,1.176 2.093,0.681 2.093,0"
             style="fill:#9a9f1c;fill-opacity:1;fill-rule:nonzero;stroke:none"
             id="path5550"
             inkscape:connector-curvature="0" /></g><g
           id="g5552"
           transform="translate(195.917,25.9688)"><path
             d="m 0,0 c 0.287,0 0.435,0.122 0.435,0.352 0,0.204 -0.152,0.331 -0.397,0.331 l -0.231,0 L -0.193,0 0,0 Z m 0.028,0.989 c 0.214,0 0.345,-0.031 0.476,-0.11 C 0.687,0.765 0.791,0.568 0.791,0.342 0.791,0.083 0.653,-0.121 0.422,-0.206 0.527,-0.286 0.577,-0.339 0.687,-0.49 0.742,-0.569 0.829,-0.701 0.89,-0.808 L 1,-0.986 1.053,-1.077 c 0.049,-0.079 0.09,-0.138 0.169,-0.234 l -0.401,0 c -0.024,0.038 -0.045,0.066 -0.058,0.087 -0.01,0.017 -0.082,0.13 -0.179,0.288 -0.111,0.178 -0.231,0.357 -0.297,0.433 -0.138,0.161 -0.218,0.196 -0.48,0.196 l 0,-1.004 -0.344,0 0,2.3 0.565,0 z"
             style="fill:#9a9f1c;fill-opacity:1;fill-rule:nonzero;stroke:none"
             id="path5554"
             inkscape:connector-curvature="0" /></g><g
           id="g5556"
           transform="translate(199.6465,25.8096)"><path
             d="m 0,0 c 0,-0.511 0.349,-0.852 0.866,-0.852 0.518,0 0.873,0.345 0.873,0.852 0,0.504 -0.355,0.85 -0.873,0.85 C 0.349,0.85 0,0.508 0,0 m 2.095,0 c 0,-0.683 -0.519,-1.179 -1.226,-1.179 -0.706,0 -1.223,0.496 -1.223,1.179 0,0.681 0.517,1.176 1.223,1.176 0.712,0 1.226,-0.495 1.226,-1.176"
             style="fill:#9a9f1c;fill-opacity:1;fill-rule:nonzero;stroke:none"
             id="path5558"
             inkscape:connector-curvature="0" /></g><g
           id="g5560"
           transform="translate(203.2275,25.9688)"><path
             d="m 0,0 c 0.287,0 0.435,0.122 0.435,0.352 0,0.204 -0.153,0.331 -0.396,0.331 l -0.232,0 L -0.193,0 0,0 Z m 0.027,0.989 c 0.215,0 0.346,-0.031 0.477,-0.11 C 0.687,0.765 0.79,0.568 0.79,0.342 0.79,0.083 0.652,-0.121 0.42,-0.206 0.528,-0.286 0.576,-0.339 0.687,-0.49 0.742,-0.569 0.828,-0.701 0.89,-0.808 L 1,-0.986 1.053,-1.077 c 0.048,-0.079 0.089,-0.138 0.168,-0.234 l -0.4,0 c -0.023,0.038 -0.044,0.066 -0.058,0.087 -0.011,0.017 -0.083,0.13 -0.18,0.288 -0.11,0.178 -0.23,0.357 -0.296,0.433 -0.14,0.161 -0.219,0.196 -0.48,0.196 l 0,-1.004 -0.345,0 0,2.3 0.565,0 z"
             style="fill:#9a9f1c;fill-opacity:1;fill-rule:nonzero;stroke:none"
             id="path5562"
             inkscape:connector-curvature="0" /></g><g
           id="g5564"
           transform="translate(205.9287,25.9688)"><path
             d="m 0,0 c 0.267,0 0.404,0.116 0.404,0.345 0,0.223 -0.134,0.338 -0.407,0.338 l -0.331,0 L -0.334,0 0,0 Z m -0.027,0.989 c 0.258,0 0.38,-0.027 0.514,-0.113 C 0.659,0.762 0.76,0.565 0.76,0.339 c 0,-0.402 -0.29,-0.646 -0.766,-0.646 l -0.328,0 0,-1.004 -0.346,0 0,2.3 0.653,0 z"
             style="fill:#9a9f1c;fill-opacity:1;fill-rule:nonzero;stroke:none"
             id="path5566"
             inkscape:connector-curvature="0" /></g><g
           id="g5568"
           transform="translate(209.1748,25.9688)"><path
             d="m 0,0 0,0.989 0.346,0 0,-2.3 -0.346,0 0,1.004 -1.255,0 0,-1.004 -0.346,0 0,2.3 0.346,0 L -1.255,0 0,0 Z"
             style="fill:#9a9f1c;fill-opacity:1;fill-rule:nonzero;stroke:none"
             id="path5570"
             inkscape:connector-curvature="0" /></g><g
           id="g5572"
           transform="translate(211.4277,26.4365)"><path
             d="m 0,0 -0.324,-0.795 0.674,0 L 0,0 Z m -0.458,-1.103 -0.287,-0.675 -0.349,0 0.97,2.299 0.252,0 1.014,-2.299 -0.359,0 -0.3,0.675 -0.941,0 z"
             style="fill:#9a9f1c;fill-opacity:1;fill-rule:nonzero;stroke:none"
             id="path5574"
             inkscape:connector-curvature="0" /></g><g
           id="g5576"
           transform="translate(215.5225,26.958)"><path
             d="m 0,0 0,-2.3 -0.3,0 -1.49,1.762 0,-1.762 -0.345,0 0,2.3 0.314,0 1.476,-1.752 0,1.752 L 0,0 Z"
             style="fill:#9a9f1c;fill-opacity:1;fill-rule:nonzero;stroke:none"
             id="path5578"
             inkscape:connector-curvature="0" /></g><g
           id="g5580"
           transform="translate(217.6963,26.4346)"><path
             d="m 0,0 c -0.183,0.169 -0.341,0.24 -0.541,0.24 -0.183,0 -0.339,-0.117 -0.339,-0.258 0,-0.141 0.093,-0.237 0.398,-0.407 0.455,-0.259 0.589,-0.43 0.589,-0.755 0,-0.366 -0.279,-0.624 -0.671,-0.624 -0.215,0 -0.398,0.065 -0.605,0.217 l 0,0.428 c 0.231,-0.242 0.39,-0.331 0.596,-0.331 0.215,0 0.356,0.117 0.356,0.297 0,0.099 -0.045,0.177 -0.145,0.264 -0.055,0.046 -0.111,0.087 -0.166,0.118 l -0.059,0.035 -0.061,0.037 -0.063,0.034 c -0.351,0.205 -0.492,0.391 -0.492,0.646 0,0.352 0.29,0.61 0.682,0.61 C -0.338,0.551 -0.192,0.51 0,0.4 L 0,0 Z"
             style="fill:#9a9f1c;fill-opacity:1;fill-rule:nonzero;stroke:none"
             id="path5582"
             inkscape:connector-curvature="0" /></g><g
           id="g5584"
           transform="translate(160.2617,31.5518)"><path
             d="M 0,0 C 0.189,0.323 0.876,1.691 0.985,2.017 1.096,2.343 1.214,2.645 1.337,2.922 1.459,3.199 1.617,3.437 1.808,3.632 1.999,3.827 2.257,4.028 2.461,4.058 2.664,4.087 3.185,3.875 3.456,3.719 3.729,3.564 3.799,3.53 4.003,3.47 3.84,3.743 3.682,4.087 3.528,4.498 3.374,4.911 3.614,5.62 3.842,5.836 4.071,6.052 4.154,6.039 4.479,6.076 4.736,6.106 5.082,6.053 5.515,5.916 5.947,5.778 6.374,5.594 6.793,5.356 7.213,5.121 7.582,4.862 7.9,4.58 8.22,4.298 8.394,4.033 8.422,3.787 8.431,3.705 8.405,3.739 8.356,3.593 8.308,3.449 8.205,3.446 8.044,3.429 7.785,3.397 7.538,3.425 7.299,3.509 7.061,3.591 6.926,3.763 6.896,4.022 6.876,4.188 6.806,4.35 6.68,4.508 6.556,4.667 6.405,4.802 6.229,4.913 6.053,5.026 5.858,5.109 5.648,5.168 5.437,5.228 4.439,5.463 4.302,5.12 4.164,4.777 4.335,4.374 4.448,3.986 4.561,3.6 4.731,3.022 4.732,2.861 4.732,2.7 4.495,2.72 4.479,2.718 4.119,2.703 3.806,2.857 3.658,2.93 3.511,3.003 2.988,3.275 2.842,3.349 2.696,3.424 2.569,3.257 2.487,3.053 2.405,2.849 2.298,2.598 2.169,2.298 2.04,2 1.881,1.671 1.693,1.316 1.506,0.962 1.202,0.332 0.986,0.308 0.771,0.285 0.512,0.295 0,0"
             style="fill:#9a9f1c;fill-opacity:1;fill-rule:nonzero;stroke:none"
             id="path5586"
             inkscape:connector-curvature="0" /></g><g
           id="g5588"
           transform="translate(160.6807,29.8027)"><path
             d="M 0,0 0.172,0.145 C 0.563,0.426 0.946,0.581 1.323,0.606 1.7,0.634 2.074,0.593 2.444,0.484 2.814,0.378 3.176,0.229 3.525,0.041 c 0.352,-0.187 0.688,-0.352 1.007,-0.49 0.32,-0.139 0.629,-0.218 0.925,-0.238 0.297,-0.019 0.645,0.01 0.81,0.138 0.164,0.129 0.342,0.697 0.4,1.031 0.057,0.335 0.075,0.415 0.165,0.62 0.117,-0.351 0.299,-0.755 0.542,-1.215 0.243,-0.459 1.008,-0.869 1.348,-0.877 0.34,-0.009 0.386,0.064 0.64,0.277 0.203,0.169 0.395,0.474 0.578,0.914 0.183,0.44 0.319,0.916 0.408,1.429 0.09,0.511 0.126,1.005 0.106,1.479 -0.018,0.475 -0.123,0.827 -0.31,1.053 C 10.078,4.237 10.09,4.19 9.934,4.275 9.778,4.357 9.705,4.283 9.579,4.178 9.374,4.008 9.228,3.798 9.133,3.55 9.039,3.301 9.092,3.056 9.291,2.817 9.417,2.665 9.505,2.478 9.552,2.251 9.602,2.025 9.613,1.799 9.585,1.574 9.559,1.348 9.496,1.132 9.4,0.924 9.305,0.716 8.817,-0.231 8.432,-0.048 8.046,0.134 7.825,0.599 7.575,1.006 7.324,1.414 6.955,2.022 6.819,2.156 6.684,2.291 6.535,2.097 6.523,2.086 6.264,1.828 6.177,1.465 6.138,1.292 6.099,1.118 5.968,0.499 5.93,0.328 5.892,0.155 5.665,0.201 5.436,0.308 5.206,0.417 4.921,0.545 4.578,0.697 4.237,0.85 3.85,1.004 3.421,1.157 2.99,1.312 2.544,1.415 2.081,1.466 1.619,1.518 1.146,1.492 0.661,1.387 0.178,1.283 -0.284,1.046 -0.73,0.676 L -0.807,0.612 C -1.458,0.025 -0.572,-0.477 0,0"
             style="fill:#9a9f1c;fill-opacity:1;fill-rule:nonzero;stroke:none"
             id="path5590"
             inkscape:connector-curvature="0" /></g><g
           id="g5592"
           transform="translate(169.9492,36.5781)"><path
             d="m 0,0 c 0.072,0.028 0.565,-0.122 0.536,-0.407 -0.028,-0.286 -0.872,-1.545 -1.3,-2.031 -0.429,-0.487 -1.278,-0.956 -1.983,-1.236 -0.706,-0.281 -4.048,-1.107 -4.102,-1.09 -0.053,0.017 -0.126,0.103 -0.071,0.184 0.055,0.081 0.658,0.465 1.054,0.676 0.397,0.21 3.38,0.534 4.458,1.737 C -0.874,-1.571 -0.071,-0.029 0,0"
             style="fill:#9a9f1c;fill-opacity:1;fill-rule:evenodd;stroke:none"
             id="path5594"
             inkscape:connector-curvature="0" /></g><path
           d="m 126.137,42.714 0.332,0 0,-2.313 -0.332,0 0,2.313 z"
           style="fill:#808285;fill-opacity:1;fill-rule:nonzero;stroke:none"
           id="path5596"
           inkscape:connector-curvature="0" /><g
           id="g5598"
           transform="translate(129.3418,42.7139)"><path
             d="m 0,0 0.314,0 0,-2.313 -0.283,0 -1.548,1.781 0,-1.781 -0.311,0 0,2.313 0.267,0 L 0,-1.797 0,0 Z"
             style="fill:#808285;fill-opacity:1;fill-rule:nonzero;stroke:none"
             id="path5600"
             inkscape:connector-curvature="0" /></g><g
           id="g5602"
           transform="translate(132.7969,42.4219)"><path
             d="m 0,0 -0.344,0 0,-0.724 0.364,0 c 0.134,0 0.238,0.033 0.311,0.096 0.073,0.063 0.108,0.154 0.108,0.273 C 0.439,-0.119 0.294,0 0,0 m -0.677,-2.021 0,2.316 0.735,0 c 0.22,0 0.397,-0.061 0.528,-0.179 0.132,-0.119 0.197,-0.279 0.197,-0.479 0,-0.136 -0.034,-0.255 -0.1,-0.359 C 0.614,-0.825 0.523,-0.9 0.406,-0.947 0.289,-0.995 0.121,-1.018 -0.099,-1.018 l -0.245,0 0,-1.003 -0.333,0 z"
             style="fill:#808285;fill-opacity:1;fill-rule:nonzero;stroke:none"
             id="path5604"
             inkscape:connector-curvature="0" /></g><g
           id="g5606"
           transform="translate(135.3447,41.3809)"><path
             d="M 0,0 -0.374,0.838 -0.721,0 0,0 Z m -0.487,1.346 0.233,0 1.037,-2.326 -0.339,0 -0.308,0.685 -0.987,0 -0.29,-0.685 -0.339,0 0.993,2.326 z"
             style="fill:#808285;fill-opacity:1;fill-rule:nonzero;stroke:none"
             id="path5608"
             inkscape:connector-curvature="0" /></g><g
           id="g5610"
           transform="translate(137.3438,42.4326)"><path
             d="m 0,0 -0.1,0 0,-0.731 0.127,0 c 0.168,0 0.283,0.015 0.345,0.043 0.063,0.029 0.111,0.072 0.147,0.13 0.034,0.058 0.051,0.124 0.051,0.198 0,0.073 -0.019,0.138 -0.057,0.199 -0.039,0.058 -0.093,0.1 -0.164,0.124 C 0.279,-0.013 0.163,0 0,0 m -0.431,-2.032 0,2.313 0.58,0 c 0.235,0 0.421,-0.057 0.559,-0.175 0.138,-0.115 0.205,-0.272 0.205,-0.469 0,-0.135 -0.034,-0.252 -0.1,-0.351 C 0.744,-0.812 0.648,-0.884 0.522,-0.933 0.597,-0.98 0.669,-1.049 0.739,-1.131 0.81,-1.215 0.909,-1.361 1.037,-1.571 1.118,-1.701 1.183,-1.8 1.23,-1.867 l 0.124,-0.165 -0.395,0 -0.1,0.153 c -0.004,0.004 -0.01,0.015 -0.02,0.027 L 0.774,-1.76 0.672,-1.592 0.562,-1.411 C 0.493,-1.315 0.43,-1.24 0.373,-1.185 0.316,-1.129 0.265,-1.088 0.22,-1.063 0.173,-1.038 0.096,-1.025 -0.012,-1.025 l -0.088,0 0,-1.007 -0.331,0 z"
             style="fill:#808285;fill-opacity:1;fill-rule:nonzero;stroke:none"
             id="path5612"
             inkscape:connector-curvature="0" /></g><g
           id="g5614"
           transform="translate(138.9736,42.7168)"><path
             d="m 0,0 1.932,0 0,-0.295 -0.807,0 0,-2.021 -0.333,0 0,2.021 L 0,-0.295 0,0 Z"
             style="fill:#808285;fill-opacity:1;fill-rule:nonzero;stroke:none"
             id="path5616"
             inkscape:connector-curvature="0" /></g><g
           id="g5618"
           transform="translate(143.5791,42.7139)"><path
             d="m 0,0 0.314,0 0,-2.313 -0.284,0 -1.546,1.781 0,-1.781 -0.312,0 0,2.313 L -1.56,0 0,-1.797 0,0 Z"
             style="fill:#808285;fill-opacity:1;fill-rule:nonzero;stroke:none"
             id="path5620"
             inkscape:connector-curvature="0" /></g><g
           id="g5622"
           transform="translate(144.9121,42.7139)"><path
             d="m 0,0 1.312,0 0,-0.295 -0.982,0 0,-0.706 0.949,0 0,-0.296 -0.949,0 0,-0.719 1.013,0 0,-0.295 L 0,-2.311 0,0 Z"
             style="fill:#808285;fill-opacity:1;fill-rule:nonzero;stroke:none"
             id="path5624"
             inkscape:connector-curvature="0" /></g><g
           id="g5626"
           transform="translate(147.5703,42.4326)"><path
             d="m 0,0 -0.1,0 0,-0.731 0.126,0 c 0.168,0 0.284,0.015 0.346,0.043 0.062,0.029 0.111,0.072 0.146,0.13 0.034,0.058 0.051,0.124 0.051,0.198 0,0.073 -0.018,0.138 -0.057,0.199 -0.039,0.058 -0.094,0.1 -0.163,0.124 C 0.278,-0.013 0.162,0 0,0 m -0.431,-2.032 0,2.313 0.58,0 c 0.235,0 0.419,-0.057 0.557,-0.175 0.138,-0.115 0.206,-0.272 0.206,-0.469 0,-0.135 -0.033,-0.252 -0.1,-0.351 -0.069,-0.098 -0.165,-0.17 -0.29,-0.219 0.075,-0.047 0.146,-0.116 0.217,-0.198 0.07,-0.084 0.17,-0.23 0.297,-0.44 0.081,-0.13 0.147,-0.229 0.194,-0.296 l 0.123,-0.165 -0.395,0 -0.1,0.153 c -0.004,0.004 -0.01,0.015 -0.02,0.027 l -0.065,0.092 -0.102,0.168 -0.11,0.181 c -0.07,0.096 -0.131,0.171 -0.188,0.226 -0.058,0.056 -0.108,0.097 -0.155,0.122 -0.045,0.025 -0.123,0.038 -0.232,0.038 l -0.086,0 0,-1.007 -0.331,0 z"
             style="fill:#808285;fill-opacity:1;fill-rule:nonzero;stroke:none"
             id="path5628"
             inkscape:connector-curvature="0" /></g><g
           id="g5630"
           transform="translate(150.2734,41.3691)"><path
             d="m 0,0 -0.251,0.153 c -0.158,0.096 -0.27,0.191 -0.338,0.285 -0.066,0.093 -0.1,0.201 -0.1,0.322 0,0.182 0.063,0.33 0.19,0.443 0.126,0.114 0.292,0.172 0.493,0.172 0.194,0 0.37,-0.055 0.531,-0.164 l 0,-0.375 c -0.166,0.16 -0.346,0.24 -0.538,0.24 -0.108,0 -0.196,-0.025 -0.266,-0.075 C -0.35,0.951 -0.383,0.887 -0.383,0.81 -0.383,0.74 -0.357,0.675 -0.307,0.615 -0.256,0.554 -0.174,0.49 -0.06,0.424 L 0.193,0.273 c 0.283,-0.168 0.423,-0.381 0.423,-0.642 0,-0.186 -0.061,-0.337 -0.185,-0.453 -0.125,-0.115 -0.285,-0.173 -0.486,-0.173 -0.227,0 -0.436,0.07 -0.624,0.21 l 0,0.422 c 0.179,-0.228 0.386,-0.342 0.62,-0.342 0.105,0 0.192,0.03 0.262,0.088 0.068,0.057 0.103,0.131 0.103,0.217 0,0.14 -0.103,0.274 -0.306,0.4"
             style="fill:#808285;fill-opacity:1;fill-rule:nonzero;stroke:none"
             id="path5632"
             inkscape:connector-curvature="0" /></g><g
           id="g5634"
           transform="translate(153.4072,42.7139)"><path
             d="m 0,0 0.331,0 0,-2.313 -0.331,0 0,1.006 -1.3,0 0,-1.006 -0.331,0 0,2.313 0.331,0 0,-1.001 1.3,0 L 0,0 Z"
             style="fill:#808285;fill-opacity:1;fill-rule:nonzero;stroke:none"
             id="path5636"
             inkscape:connector-curvature="0" /></g><path
           d="m 154.774,42.714 0.332,0 0,-2.313 -0.332,0 0,2.313 z"
           style="fill:#808285;fill-opacity:1;fill-rule:nonzero;stroke:none"
           id="path5638"
           inkscape:connector-curvature="0" /><g
           id="g5640"
           transform="translate(156.7998,42.4219)"><path
             d="m 0,0 -0.344,0 0,-0.724 0.365,0 c 0.133,0 0.237,0.033 0.31,0.096 0.072,0.063 0.109,0.154 0.109,0.273 C 0.44,-0.119 0.294,0 0,0 m -0.677,-2.021 0,2.316 0.735,0 c 0.22,0 0.396,-0.061 0.528,-0.179 0.132,-0.119 0.197,-0.279 0.197,-0.479 0,-0.136 -0.034,-0.255 -0.1,-0.359 C 0.614,-0.825 0.522,-0.9 0.405,-0.947 0.289,-0.995 0.121,-1.018 -0.098,-1.018 l -0.246,0 0,-1.003 -0.333,0 z"
             style="fill:#808285;fill-opacity:1;fill-rule:nonzero;stroke:none"
             id="path5642"
             inkscape:connector-curvature="0" /></g><g
           id="g5644"
           transform="translate(162.3809,42.7139)"><path
             d="m 0,0 0.331,0 -0.935,-2.323 -0.074,0 -0.756,1.882 -0.764,-1.882 -0.072,0 L -3.202,0 -2.867,0 -2.23,-1.595 -1.589,0 -1.275,0 -0.631,-1.595 0,0 Z"
             style="fill:#808285;fill-opacity:1;fill-rule:nonzero;stroke:none"
             id="path5646"
             inkscape:connector-curvature="0" /></g><path
           d="m 163.494,42.714 0.331,0 0,-2.313 -0.331,0 0,2.313 z"
           style="fill:#808285;fill-opacity:1;fill-rule:nonzero;stroke:none"
           id="path5648"
           inkscape:connector-curvature="0" /><g
           id="g5650"
           transform="translate(164.6641,42.7168)"><path
             d="m 0,0 1.933,0 0,-0.295 -0.807,0 0,-2.021 -0.333,0 0,2.021 L 0,-0.295 0,0 Z"
             style="fill:#808285;fill-opacity:1;fill-rule:nonzero;stroke:none"
             id="path5652"
             inkscape:connector-curvature="0" /></g><g
           id="g5654"
           transform="translate(169.0645,42.7139)"><path
             d="m 0,0 0.33,0 0,-2.313 -0.33,0 0,1.006 -1.301,0 0,-1.006 -0.332,0 0,2.313 0.332,0 0,-1.001 1.301,0 L 0,0 Z"
             style="fill:#808285;fill-opacity:1;fill-rule:nonzero;stroke:none"
             id="path5656"
             inkscape:connector-curvature="0" /></g></g></g></g></svg>