<?xml version="1.0" encoding="UTF-8" standalone="no"?>
<!-- Created with Inkscape (http://www.inkscape.org/) -->

<svg
   xmlns:dc="http://purl.org/dc/elements/1.1/"
   xmlns:cc="http://creativecommons.org/ns#"
   xmlns:rdf="http://www.w3.org/1999/02/22-rdf-syntax-ns#"
   xmlns:svg="http://www.w3.org/2000/svg"
   xmlns="http://www.w3.org/2000/svg"
   xmlns:sodipodi="http://sodipodi.sourceforge.net/DTD/sodipodi-0.dtd"
   xmlns:inkscape="http://www.inkscape.org/namespaces/inkscape"
   width="500mm"
   height="500mm"
   viewBox="0 0 1771.6535 1771.6535"
   id="svg5346"
   version="1.1"
   inkscape:version="0.91 r13725"
   sodipodi:docname="jasmine.svg">
  <defs
     id="defs5348" />
  <sodipodi:namedview
     id="base"
     pagecolor="#ffffff"
     bordercolor="#666666"
     borderopacity="1.0"
     inkscape:pageopacity="0.0"
     inkscape:pageshadow="2"
     inkscape:zoom="0.27657778"
     inkscape:cx="885.82677"
     inkscape:cy="885.82677"
     inkscape:document-units="px"
     inkscape:current-layer="layer3"
     showgrid="false"
     inkscape:window-width="1280"
     inkscape:window-height="692"
     inkscape:window-x="0"
     inkscape:window-y="1"
     inkscape:window-maximized="1" />
  <metadata
     id="metadata5351">
    <rdf:RDF>
      <cc:Work
         rdf:about="">
        <dc:format>image/svg+xml</dc:format>
        <dc:type
           rdf:resource="http://purl.org/dc/dcmitype/StillImage" />
        <dc:title></dc:title>
      </cc:Work>
    </rdf:RDF>
  </metadata>
  <g
     inkscape:groupmode="layer"
     id="layer3"
     inkscape:label="bg">
    <rect
       style="opacity:1;fill:#000000;fill-opacity:0"
       id="rect11645"
       width="1948.5714"
       height="1920"
       x="-80"
       y="-51.203484" />
    <g
       style="fill:#7f3981;fill-opacity:1"
       id="g5912"
       transform="matrix(1.4934786,0,0,1.4941398,-519.42208,1330.7764)">
      <g
         transform="translate(0,-719.29134)"
         style="font-style:normal;font-weight:normal;font-size:40px;line-height:125%;font-family:sans-serif;text-align:center;letter-spacing:0px;word-spacing:0px;text-anchor:middle;fill:#7f3981;fill-opacity:1;stroke:none;stroke-width:1px;stroke-linecap:butt;stroke-linejoin:miter;stroke-opacity:1"
         id="flowRoot5894">
        <path
           d="m 557.4346,246.00518 -5.44922,0 0,-9.53614 5.44922,0 0,9.53614 z m 0,49.26269 q 0,6.32812 -3.91113,10.32715 -3.86719,4.04296 -10.19531,4.04296 l -11.7334,0 q -2.46094,0 -2.46094,-1.8457 0,-1.88965 2.46094,-1.88965 l 11.64551,0.0439 q 4.6582,0 7.55859,-3.03223 2.94434,-2.98828 2.94434,-7.64648 l 0,-36.73828 -3.12012,0 q -2.46094,0 -2.46094,-1.88965 0,-1.8457 2.46094,-1.8457 l 6.81152,0 0,40.47363 z"
           style="font-style:normal;font-variant:normal;font-weight:normal;font-stretch:normal;font-size:89.99999237px;font-family:'Serto Jerusalem';-inkscape-font-specification:'Serto Jerusalem';fill:#7f3981;fill-opacity:1"
           id="path11664" />
        <path
           d="m 607.83987,286.43486 q 0,1.8457 -2.46094,1.8457 l -6.45996,0 0,-4.79003 q -7.25097,6.10839 -15.51269,6.10839 -5.22949,0 -8.74512,-2.54882 -3.99902,-2.85645 -3.99902,-7.91016 0,-6.19629 5.97656,-9.44824 4.79004,-2.63672 11.46973,-2.63672 4.74609,0 10.81054,1.23047 l 0,-5.40527 q 0,-3.55957 -3.51562,-5.36133 -2.72461,-1.40625 -6.63574,-1.40625 -2.50488,0 -7.20703,1.3623 -4.65821,1.31836 -5.31739,1.31836 -1.53808,0 -1.53808,-1.66992 0,-0.61523 0.39551,-1.09863 0.74707,-0.87891 6.45996,-2.10938 5.31738,-1.18652 7.38281,-1.18652 5.09765,0 8.9209,2.46094 4.43847,2.8125 4.43847,7.69043 l -0.0439,21.66503 3.12011,0 q 2.46094,0 2.46094,1.88965 z m -8.9209,-7.38281 0,-7.33887 q -4.52636,-1.31836 -10.45898,-1.31836 -5.1416,0 -9.18457,1.84571 -5.27344,2.37304 -5.27344,6.89941 0,3.60352 2.94434,5.49316 2.50488,1.62598 6.32812,1.62598 8.12989,0 15.64453,-7.20703 z"
           style="font-style:normal;font-variant:normal;font-weight:normal;font-stretch:normal;font-size:89.99999237px;font-family:'Serto Jerusalem';-inkscape-font-specification:'Serto Jerusalem';fill:#7f3981;fill-opacity:1"
           id="path11666" />
        <path
           d="m 666.28713,255.32158 q 0.57129,0.52735 0.57129,1.31836 0,1.66992 -2.24121,1.9336 0.39551,-0.0439 -3.33984,-0.0439 l 5.00976,-3.20801 z m -30.67382,0 q 0.57129,0.52735 0.57129,1.31836 0,1.66992 -2.24121,1.9336 0.3955,-0.0439 -3.33985,-0.0439 l 5.00977,-3.20801 z m 31.24511,1.31836 q 0,1.66992 -2.24121,1.9336 0.39551,-0.0439 -3.33984,-0.0439 l -14.10645,29.75097 -6.24023,0 -14.28223,-29.75097 q -3.73535,0 -3.33984,0.0439 -2.24121,-0.26368 -2.24121,-1.9336 0,-1.8457 2.3291,-1.8457 l 10.45898,0 q 2.32911,0 2.32911,1.8457 0,1.66992 -2.24121,1.9336 0.3955,-0.0439 -3.33985,-0.0439 l 12.65625,26.05957 1.62598,0 12.39257,-26.05957 q -3.73535,0 -3.33984,0.0439 -2.24121,-0.26368 -2.24121,-1.9336 0,-1.8457 2.3291,-1.8457 l 10.50293,0 q 2.3291,0 2.3291,1.8457 z"
           style="font-style:normal;font-variant:normal;font-weight:normal;font-stretch:normal;font-size:89.99999237px;font-family:'Serto Jerusalem';-inkscape-font-specification:'Serto Jerusalem';fill:#7f3981;fill-opacity:1"
           id="path11668" />
        <path
           d="m 717.00002,286.43486 q 0,1.8457 -2.46094,1.8457 l -6.45996,0 0,-4.79003 q -7.25098,6.10839 -15.5127,6.10839 -5.22949,0 -8.74511,-2.54882 -3.99902,-2.85645 -3.99902,-7.91016 0,-6.19629 5.97656,-9.44824 4.79004,-2.63672 11.46972,-2.63672 4.7461,0 10.81055,1.23047 l 0,-5.40527 q 0,-3.55957 -3.51563,-5.36133 -2.7246,-1.40625 -6.63574,-1.40625 -2.50488,0 -7.20703,1.3623 -4.6582,1.31836 -5.31738,1.31836 -1.53809,0 -1.53809,-1.66992 0,-0.61523 0.39551,-1.09863 0.74707,-0.87891 6.45996,-2.10938 5.31738,-1.18652 7.38281,-1.18652 5.09766,0 8.9209,2.46094 4.43848,2.8125 4.43848,7.69043 l -0.0439,21.66503 3.12012,0 q 2.46094,0 2.46094,1.88965 z m -8.9209,-7.38281 0,-7.33887 q -4.52637,-1.31836 -10.45898,-1.31836 -5.14161,0 -9.18457,1.84571 -5.27344,2.37304 -5.27344,6.89941 0,3.60352 2.94433,5.49316 2.50489,1.62598 6.32813,1.62598 8.12988,0 15.64453,-7.20703 z"
           style="font-style:normal;font-variant:normal;font-weight:normal;font-stretch:normal;font-size:89.99999237px;font-family:'Serto Jerusalem';-inkscape-font-specification:'Serto Jerusalem';fill:#7f3981;fill-opacity:1"
           id="path11670" />
        <path
           d="m 762.57131,278.83232 q 0,5.53711 -5.58106,8.48145 -4.48242,2.37304 -10.50293,2.37304 -7.91015,0 -12.91992,-3.99902 0,2.72461 -1.66992,2.72461 -1.66992,0 -1.66992,-2.24121 l 0,-6.85547 q 0,-2.24121 1.66992,-2.24121 1.27441,0 1.71387,1.88965 0.61523,2.63672 0.8789,2.98828 3.16407,4.43848 11.86524,4.43848 4.52636,0 8.12988,-1.53809 4.74609,-2.06543 4.74609,-6.02051 0,-4.79004 -7.07519,-6.41601 -6.5918,-1.18653 -13.13965,-2.37305 -7.07519,-2.02148 -7.07519,-7.86621 0,-4.70215 5.00976,-7.29492 3.99902,-2.02148 9.22852,-2.02148 6.89941,0 11.20605,3.38378 0,-2.19726 1.66992,-2.19726 1.71387,0 1.71387,2.24121 l 0,5.71289 q 0,2.24121 -1.71387,2.24121 -1.18652,0 -1.66992,-1.97754 -0.65918,-2.54883 -2.46094,-3.82324 -3.16406,-2.19727 -8.61328,-2.19727 -3.6914,0 -6.81152,1.23047 -4.17481,1.66992 -4.17481,4.83399 0,3.51562 5.18555,4.79004 l 10.81055,1.75781 q 6.76757,1.31836 9.36035,4.6582 1.88965,2.46094 1.88965,5.31738 z"
           style="font-style:normal;font-variant:normal;font-weight:normal;font-stretch:normal;font-size:89.99999237px;font-family:'Serto Jerusalem';-inkscape-font-specification:'Serto Jerusalem';fill:#7f3981;fill-opacity:1"
           id="path11672" />
        <path
           d="m 812.40529,281.29326 q 0,1.71387 -4.04297,4.35059 -6.41601,4.21875 -14.37011,4.21875 -8.042,0 -13.22754,-5.05372 -5.18555,-5.09765 -5.18555,-13.0957 0,-8.08593 5.27344,-13.35937 5.27344,-5.31738 13.35937,-5.31738 7.64649,0 12.87598,4.57031 l 0,-1.4502 q 0.0439,-1.93359 1.62597,-1.93359 1.71387,0 1.71387,2.24121 l 0,7.55859 q 0,2.24121 -1.71387,2.24121 -0.65918,0 -1.09863,-0.43945 l -0.79101,-2.59277 q -0.65918,-2.24121 -3.47168,-4.30664 -3.42774,-2.50488 -9.31641,-2.50488 -6.76758,0 -10.94238,4.26269 -4.17481,4.21875 -4.17481,10.98633 0,6.63574 4.2627,10.7666 4.30664,4.13086 10.94238,4.13086 8.34961,0 15.20508,-6.06446 0.92285,-0.79101 1.45019,-0.79101 1.62598,0 1.62598,1.58203 z"
           style="font-style:normal;font-variant:normal;font-weight:normal;font-stretch:normal;font-size:89.99999237px;font-family:'Serto Jerusalem';-inkscape-font-specification:'Serto Jerusalem';fill:#7f3981;fill-opacity:1"
           id="path11674" />
        <path
           d="m 859.20703,259.45244 q 0,1.93359 -1.93359,1.93359 -0.65918,0 -2.76856,-1.88964 -2.10937,-1.9336 -4.04296,-1.9336 -3.55957,0 -9.49219,4.43848 -2.24121,1.66992 -8.12988,6.94336 l 0,15.68847 q 3.6914,0 3.33984,-0.0439 2.24121,0.26367 2.24121,1.88965 0,1.8457 -2.46094,1.8457 l -9.88769,0 q -2.50488,0 -2.50488,-1.8457 0,-1.62598 2.24121,-1.88965 -0.35156,0.0439 3.33984,0.0439 l 0,-26.10351 q -3.64746,0 -3.38379,0.0439 -2.19726,-0.26368 -2.19726,-1.9336 0,-1.8457 2.46093,-1.8457 l 6.81153,0 0,9.3164 q 5.31738,-4.79003 7.9541,-6.59179 5.27344,-3.64746 9.44824,-3.64746 2.24121,0 5.44922,1.75781 3.51562,1.93359 3.51562,3.82324 z"
           style="font-style:normal;font-variant:normal;font-weight:normal;font-stretch:normal;font-size:89.99999237px;font-family:'Serto Jerusalem';-inkscape-font-specification:'Serto Jerusalem';fill:#7f3981;fill-opacity:1"
           id="path11676" />
        <path
           d="m 881.75098,246.00518 -5.44922,0 0,-9.53614 5.44922,0 0,9.53614 z m -3.69141,38.58398 0,-26.05957 -3.12011,0 q -2.46094,0 -2.46094,-1.88965 0,-1.8457 2.46094,-1.8457 l 6.81152,0 0,29.79492 -3.69141,0 z m 6.89942,0 q 2.46094,0 2.46094,1.88965 0,1.8457 -2.46094,1.8457 l -9.93164,0 q -2.46094,0 -2.46094,-1.8457 0,-1.88965 2.46094,-1.88965 l 9.93164,0 z"
           style="font-style:normal;font-variant:normal;font-weight:normal;font-stretch:normal;font-size:89.99999237px;font-family:'Serto Jerusalem';-inkscape-font-specification:'Serto Jerusalem';fill:#7f3981;fill-opacity:1"
           id="path11678" />
        <path
           d="m 943.49414,271.27373 q 0,7.69043 -5.44922,13.05176 -5.40527,5.36132 -13.13964,5.36132 -9.53614,0 -15.20508,-7.77832 l -0.0439,24.03809 q 3.64746,0 3.38379,-0.0439 2.19727,0.26367 2.19727,1.88965 0,1.8457 -2.46094,1.8457 l -9.88769,0 q -2.50489,0 -2.50489,-1.8457 0,-1.62598 2.19727,-1.88965 -0.26367,0.0439 3.38379,0.0439 l 0,-47.41699 -3.12012,0 q -2.46094,0 -2.46094,-1.88965 0,-1.8457 2.46094,-1.8457 l 6.81152,0 0,5.84472 q 5.66895,-7.82226 15.24903,-7.82226 7.73437,0 13.13964,5.36133 5.44922,5.36133 5.44922,13.0957 z m -3.33984,0 q 0,-6.32813 -4.48242,-10.67871 -4.43848,-4.39453 -10.81055,-4.39453 -6.32812,0 -10.81055,4.39453 -4.43847,4.35058 -4.43847,10.67871 0,6.28418 4.48242,10.67871 4.48242,4.39453 10.7666,4.39453 6.32812,0 10.81055,-4.35059 4.48242,-4.39453 4.48242,-10.72265 z"
           style="font-style:normal;font-variant:normal;font-weight:normal;font-stretch:normal;font-size:89.99999237px;font-family:'Serto Jerusalem';-inkscape-font-specification:'Serto Jerusalem';fill:#7f3981;fill-opacity:1"
           id="path11680" />
        <path
           d="m 992.88867,283.66631 q 0,2.15332 -5.625,4.35058 -4.35058,1.71387 -8.21777,1.71387 -5.49316,0 -9.18457,-2.8125 -4.04297,-3.07617 -4.04297,-8.39355 l -0.0439,-19.99512 -9.00879,0 q -2.46094,0 -2.46094,-1.88965 0,-1.8457 2.46094,-1.8457 l 9.00879,0 0.0439,-15.46875 q 0,-2.46094 1.84571,-2.46094 1.88964,0 1.88964,2.46094 l -0.0439,15.46875 17.84179,0 q 2.46094,0 2.46094,1.88965 0,1.8457 -2.46094,1.8457 l -17.84179,0 0.0439,19.99512 q 0,3.60351 2.90039,5.66894 2.59278,1.8457 6.32813,1.8457 1.62598,0 5.88867,-1.14257 0.92285,-0.21973 3.64746,-1.71387 2.54883,-1.36231 2.8125,-1.36231 1.75781,0 1.75781,1.84571 z"
           style="font-style:normal;font-variant:normal;font-weight:normal;font-stretch:normal;font-size:89.99999237px;font-family:'Serto Jerusalem';-inkscape-font-specification:'Serto Jerusalem';fill:#7f3981;fill-opacity:1"
           id="path11682" />
        <path
           d="m 1071.1113,283.66631 q 0,2.15332 -5.625,4.35058 -4.3506,1.71387 -8.2177,1.71387 -5.4932,0 -9.1846,-2.8125 -4.043,-3.07617 -4.043,-8.39355 l -0.044,-19.99512 -9.0088,0 q -2.461,0 -2.461,-1.88965 0,-1.8457 2.461,-1.8457 l 9.0088,0 0.044,-15.46875 q 0,-2.46094 1.8457,-2.46094 1.8897,0 1.8897,2.46094 l -0.044,15.46875 17.8418,0 q 2.461,0 2.461,1.88965 0,1.8457 -2.461,1.8457 l -17.8418,0 0.044,19.99512 q 0,3.60351 2.9004,5.66894 2.5927,1.8457 6.3281,1.8457 1.626,0 5.8887,-1.14257 0.9228,-0.21973 3.6474,-1.71387 2.5488,-1.36231 2.8125,-1.36231 1.7578,0 1.7578,1.84571 z"
           style="font-style:normal;font-variant:normal;font-weight:normal;font-stretch:normal;font-size:89.99999237px;font-family:'Serto Jerusalem';-inkscape-font-specification:'Serto Jerusalem';fill:#7f3981;fill-opacity:1"
           id="path11684" />
        <path
           d="m 1118.4843,282.7874 q 0,2.41699 -7.3828,5.05371 -4.8779,1.71387 -9.9756,1.71387 -8.3496,0 -14.1943,-5.44922 -5.8447,-5.44922 -5.8447,-13.75488 0,-7.60254 5.581,-12.7002 5.4493,-4.96582 13.0957,-4.96582 8.3497,0 13.5352,5.40528 5.1855,5.40527 5.0977,13.75488 l -33.9258,0 q 0.8789,6.59179 5.4052,10.50293 4.5704,3.86718 11.25,3.86718 8.2178,0 14.4581,-4.48242 0.8349,-0.61523 1.3183,-0.61523 1.582,0 1.582,1.66992 z m -3.4277,-14.28223 q -1.0107,-5.62499 -5.2734,-9.00878 -4.2627,-3.42774 -10.0196,-3.42774 -5.8007,0 -10.0195,3.38379 -4.2187,3.38379 -5.2295,9.05273 l 30.542,0 z"
           style="font-style:normal;font-variant:normal;font-weight:normal;font-stretch:normal;font-size:89.99999237px;font-family:'Serto Jerusalem';-inkscape-font-specification:'Serto Jerusalem';fill:#7f3981;fill-opacity:1"
           id="path11686" />
        <path
           d="m 1163.8799,278.83232 q 0,5.53711 -5.5811,8.48145 -4.4824,2.37304 -10.5029,2.37304 -7.9102,0 -12.9199,-3.99902 0,2.72461 -1.67,2.72461 -1.6699,0 -1.6699,-2.24121 l 0,-6.85547 q 0,-2.24121 1.6699,-2.24121 1.2744,0 1.7139,1.88965 0.6152,2.63672 0.8789,2.98828 3.1641,4.43848 11.8652,4.43848 4.5264,0 8.1299,-1.53809 4.7461,-2.06543 4.7461,-6.02051 0,-4.79004 -7.0752,-6.41601 -6.5918,-1.18653 -13.1396,-2.37305 -7.0752,-2.02148 -7.0752,-7.86621 0,-4.70215 5.0097,-7.29492 3.9991,-2.02148 9.2286,-2.02148 6.8994,0 11.206,3.38378 0,-2.19726 1.6699,-2.19726 1.7139,0 1.7139,2.24121 l 0,5.71289 q 0,2.24121 -1.7139,2.24121 -1.1865,0 -1.6699,-1.97754 -0.6592,-2.54883 -2.4609,-3.82324 -3.1641,-2.19727 -8.6133,-2.19727 -3.6914,0 -6.8115,1.23047 -4.1748,1.66992 -4.1748,4.83399 0,3.51562 5.1855,4.79004 l 10.8106,1.75781 q 6.7675,1.31836 9.3603,4.6582 1.8897,2.46094 1.8897,5.31738 z"
           style="font-style:normal;font-variant:normal;font-weight:normal;font-stretch:normal;font-size:89.99999237px;font-family:'Serto Jerusalem';-inkscape-font-specification:'Serto Jerusalem';fill:#7f3981;fill-opacity:1"
           id="path11688" />
        <path
           d="m 1215.2519,283.66631 q 0,2.15332 -5.625,4.35058 -4.3506,1.71387 -8.2177,1.71387 -5.4932,0 -9.1846,-2.8125 -4.043,-3.07617 -4.043,-8.39355 l -0.044,-19.99512 -9.0088,0 q -2.461,0 -2.461,-1.88965 0,-1.8457 2.461,-1.8457 l 9.0088,0 0.044,-15.46875 q 0,-2.46094 1.8457,-2.46094 1.8897,0 1.8897,2.46094 l -0.044,15.46875 17.8418,0 q 2.461,0 2.461,1.88965 0,1.8457 -2.461,1.8457 l -17.8418,0 0.044,19.99512 q 0,3.60351 2.9004,5.66894 2.5927,1.8457 6.3281,1.8457 1.626,0 5.8887,-1.14257 0.9228,-0.21973 3.6474,-1.71387 2.5488,-1.36231 2.8125,-1.36231 1.7578,0 1.7578,1.84571 z"
           style="font-style:normal;font-variant:normal;font-weight:normal;font-stretch:normal;font-size:89.99999237px;font-family:'Serto Jerusalem';-inkscape-font-specification:'Serto Jerusalem';fill:#7f3981;fill-opacity:1"
           id="path11690" />
        <path
           d="m 1234.5439,246.00518 -5.4492,0 0,-9.53614 5.4492,0 0,9.53614 z m -3.6914,38.58398 0,-26.05957 -3.1201,0 q -2.4609,0 -2.4609,-1.88965 0,-1.8457 2.4609,-1.8457 l 6.8115,0 0,29.79492 -3.6914,0 z m 6.8994,0 q 2.461,0 2.461,1.88965 0,1.8457 -2.461,1.8457 l -9.9316,0 q -2.461,0 -2.461,-1.8457 0,-1.88965 2.461,-1.88965 l 9.9316,0 z"
           style="font-style:normal;font-variant:normal;font-weight:normal;font-stretch:normal;font-size:89.99999237px;font-family:'Serto Jerusalem';-inkscape-font-specification:'Serto Jerusalem';fill:#7f3981;fill-opacity:1"
           id="path11692" />
        <path
           d="m 1296.5068,286.47881 q 0,1.8457 -2.4609,1.8457 l -9.9317,0 q -2.4609,0 -2.4609,-1.8457 0,-1.88965 2.4609,-1.88965 l 3.1201,0 -0.044,-18.06152 q 0,-4.30664 -3.1641,-6.89942 -2.9443,-2.41699 -7.3388,-2.41699 -4.4824,0 -7.9541,2.59277 -2.0215,1.49414 -6.0205,6.19629 l 0.044,18.58887 3.1201,0 q 2.461,0 2.461,1.88965 0,1.8457 -2.461,1.8457 l -9.9316,0 q -2.461,0 -2.461,-1.8457 0,-1.88965 2.461,-1.88965 l 3.1201,0 -0.044,-26.05957 -3.1202,0 q -2.4609,0 -2.4609,-1.88965 0,-1.8457 2.4609,-1.8457 l 6.8116,0 0,5.58105 q 6.8115,-6.89941 14.0185,-6.89941 5.625,0 9.7559,3.33984 4.3945,3.55957 4.3945,9.09668 l 0.044,18.67676 3.1201,0 q 2.4609,0 2.4609,1.88965 z"
           style="font-style:normal;font-variant:normal;font-weight:normal;font-stretch:normal;font-size:89.99999237px;font-family:'Serto Jerusalem';-inkscape-font-specification:'Serto Jerusalem';fill:#7f3981;fill-opacity:1"
           id="path11694" />
        <path
           d="m 1352.7129,256.63994 q 0,1.88965 -2.461,1.88965 l -3.1201,0 0.044,36.69433 q 0,5.97656 -4.4825,10.19531 -4.4824,4.21875 -10.5029,4.21875 l -10.459,0 q -2.4609,0 -2.4609,-1.8457 0,-1.88965 2.4609,-1.88965 l 10.5908,0.0439 q 6.7676,0.0439 10.1953,-6.54785 0.9668,-1.80176 0.9668,-4.70215 l 0.088,-12.7002 q -5.7129,7.69043 -15.1611,7.69043 -7.7344,0 -13.1836,-5.31738 -5.4492,-5.36133 -5.4492,-13.0957 0,-7.73437 5.4492,-13.0957 5.4492,-5.36133 13.1836,-5.36133 9.3164,0 15.0293,7.60254 l 0,-5.625 6.8115,0 q 2.461,0 2.461,1.8457 z m -9.0528,14.63379 q 0,-6.32813 -4.4824,-10.67871 -4.4385,-4.39453 -10.8105,-4.39453 -6.3282,0 -10.8106,4.39453 -4.4385,4.35058 -4.4385,10.67871 0,6.28418 4.4825,10.67871 4.4824,4.39453 10.7666,4.39453 6.3281,0 10.8105,-4.35059 4.4824,-4.39453 4.4824,-10.72265 z"
           style="font-style:normal;font-variant:normal;font-weight:normal;font-stretch:normal;font-size:89.99999237px;font-family:'Serto Jerusalem';-inkscape-font-specification:'Serto Jerusalem';fill:#7f3981;fill-opacity:1"
           id="path11696" />
        <path
           d="m 906.31641,367.82158 q 0.57129,0.52735 0.57129,1.31836 0,1.66992 -2.24121,1.9336 0.39551,-0.0439 -3.33985,-0.0439 l 5.00977,-3.20801 z m 0.57129,1.31836 q 0,1.66992 -2.24121,1.9336 0.39551,-0.0439 -3.33985,-0.0439 l -13.22753,29.75097 -6.24024,0 -6.81152,-16.04003 -6.72363,16.04003 -6.24024,0 -13.40332,-29.75097 q -3.73535,0 -3.33984,0.0439 -2.24121,-0.26368 -2.24121,-1.9336 0,-1.8457 2.3291,-1.8457 l 10.45898,0 q 2.32911,0 2.32911,1.8457 0,1.66992 -2.24121,1.9336 0.3955,-0.0439 -3.33985,-0.0439 l 11.77734,26.05957 1.62598,0 6.98731,-16.56738 4.04296,0 7.11914,16.56738 1.62598,0 11.51367,-26.05957 q -3.73535,0 -3.33984,0.0439 -2.24121,-0.26368 -2.24121,-1.9336 0,-1.8457 2.3291,-1.8457 l 10.50293,0 q 2.3291,0 2.3291,1.8457 z m -49.26269,-1.31836 q 0.57129,0.52735 0.57129,1.31836 0,1.66992 -2.24121,1.9336 0.3955,-0.0439 -3.33985,-0.0439 l 5.00977,-3.20801 z"
           style="font-style:normal;font-variant:normal;font-weight:normal;font-stretch:normal;font-size:89.99999237px;font-family:'Serto Jerusalem';-inkscape-font-specification:'Serto Jerusalem';fill:#7f3981;fill-opacity:1"
           id="path11698" />
        <path
           d="m 929.21191,358.50518 -5.44921,0 0,-9.53614 5.44921,0 0,9.53614 z m -3.6914,38.58398 0,-26.05957 -3.12012,0 q -2.46094,0 -2.46094,-1.88965 0,-1.8457 2.46094,-1.8457 l 6.81152,0 0,29.79492 -3.6914,0 z m 6.89941,0 q 2.46094,0 2.46094,1.88965 0,1.8457 -2.46094,1.8457 l -9.93164,0 q -2.46094,0 -2.46094,-1.8457 0,-1.88965 2.46094,-1.88965 l 9.93164,0 z"
           style="font-style:normal;font-variant:normal;font-weight:normal;font-stretch:normal;font-size:89.99999237px;font-family:'Serto Jerusalem';-inkscape-font-specification:'Serto Jerusalem';fill:#7f3981;fill-opacity:1"
           id="path11700" />
        <path
           d="m 986.38476,396.16631 q 0,2.15332 -5.625,4.35058 -4.35058,1.71387 -8.21777,1.71387 -5.49316,0 -9.18457,-2.8125 -4.04297,-3.07617 -4.04297,-8.39355 l -0.0439,-19.99512 -9.00879,0 q -2.46094,0 -2.46094,-1.88965 0,-1.8457 2.46094,-1.8457 l 9.00879,0 0.0439,-15.46875 q 0,-2.46094 1.84571,-2.46094 1.88964,0 1.88964,2.46094 l -0.0439,15.46875 17.84179,0 q 2.46094,0 2.46094,1.88965 0,1.8457 -2.46094,1.8457 l -17.84179,0 0.0439,19.99512 q 0,3.60351 2.90039,5.66894 2.59278,1.8457 6.32813,1.8457 1.62598,0 5.88867,-1.14257 0.92285,-0.21973 3.64746,-1.71387 2.54883,-1.36231 2.8125,-1.36231 1.75781,0 1.75781,1.84571 z"
           style="font-style:normal;font-variant:normal;font-weight:normal;font-stretch:normal;font-size:89.99999237px;font-family:'Serto Jerusalem';-inkscape-font-specification:'Serto Jerusalem';fill:#7f3981;fill-opacity:1"
           id="path11702" />
        <path
           d="m 1039.6025,398.97881 q 0,1.8457 -2.4609,1.8457 l -9.9316,0 q -2.461,0 -2.461,-1.8457 0,-1.88965 2.461,-1.88965 l 3.1201,0 -0.044,-16.91895 q 0,-4.48242 -3.2959,-7.03125 -2.9883,-2.3291 -7.6025,-2.3291 -4.2627,0 -7.7783,2.63672 -1.67,1.27442 -5.9326,5.97656 l 0,17.66602 3.1201,0 q 2.4609,0 2.4609,1.88965 0,1.8457 -2.4609,1.8457 l -9.93167,0 q -2.46094,0 -2.46094,-1.8457 0,-1.88965 2.46094,-1.88965 l 3.12007,0 0,-47.72461 -3.12007,0 q -2.46094,0 -2.46094,-1.88965 0,-1.8457 2.46094,-1.8457 l 6.81157,0 0,28.43262 q 6.372,-6.94336 13.9746,-6.94336 5.8886,0 9.9755,3.38379 4.3946,3.60351 4.3946,9.40429 l 0,17.18262 3.1201,0 q 2.4609,0 2.4609,1.88965 z"
           style="font-style:normal;font-variant:normal;font-weight:normal;font-stretch:normal;font-size:89.99999237px;font-family:'Serto Jerusalem';-inkscape-font-specification:'Serto Jerusalem';fill:#7f3981;fill-opacity:1"
           id="path11704" />
      </g>
      <g
         transform="translate(-38.824241,-707.86277)"
         style="font-style:normal;font-variant:normal;font-weight:normal;font-stretch:normal;font-size:179.99998474px;line-height:125%;font-family:'Serto Malankara';-inkscape-font-specification:'Serto Malankara';text-align:center;letter-spacing:0px;word-spacing:0px;text-anchor:middle;fill:#7f3981;fill-opacity:1;stroke:none;stroke-width:1px;stroke-linecap:butt;stroke-linejoin:miter;stroke-opacity:1"
         id="flowRoot5904">
        <path
           d="m 533.93276,557.75039 0,-13.63975 16.99378,0 0,13.63975 q 0,8.4969 6.03727,14.31056 5.81366,6.03727 14.31056,6.03727 8.9441,0 15.42857,-5.81367 6.70807,-5.81366 6.70807,-14.53416 l 0,-101.96272 16.99379,0 0,101.96272 q 0,15.20497 -11.85093,25.49068 -11.40373,10.06211 -27.2795,10.06211 -15.20497,0 -26.16149,-10.28571 -11.18012,-10.28571 -11.18012,-25.26708 z"
           style="font-style:normal;font-variant:normal;font-weight:bold;font-stretch:normal;font-family:'Shree Devanagari 714';-inkscape-font-specification:'Shree Devanagari 714 Bold';letter-spacing:26.82959557px;fill:#7f3981;fill-opacity:1"
           id="path11707" />
        <path
           d="m 648.94121,591.73797 44.27329,-135.9503 21.91304,0 44.27329,135.9503 -16.99379,0 -13.63975,-40.69565 -49.19254,0 -13.63975,40.69565 -16.99379,0 z m 35.55279,-55.90062 39.35403,0 -19.67701,-58.80745 -19.67702,58.80745 z"
           style="font-style:normal;font-variant:normal;font-weight:bold;font-stretch:normal;font-family:'Shree Devanagari 714';-inkscape-font-specification:'Shree Devanagari 714 Bold';letter-spacing:26.82959557px;fill:#7f3981;fill-opacity:1"
           id="path11709" />
        <path
           d="m 791.56151,545.89946 16.99379,0 q 0,15.42857 9.3913,24.59627 9.1677,9.39131 24.59627,9.39131 15.42857,0 24.59627,-6.93168 9.39131,-6.93168 9.39131,-18.559 0,-10.50932 -10.95652,-16.77019 -8.04969,-4.47205 -23.03106,-7.15528 -19.90062,-3.57764 -32.86956,-13.19254 -14.75776,-11.18013 -14.75776,-27.50311 0,-16.54658 12.96894,-26.60869 12.96894,-10.06211 34.65838,-10.06211 21.68944,0 34.65838,11.85093 12.96895,11.85093 12.96895,31.52795 l -16.99379,0 q -2.23602,-12.74534 -10.50932,-20.57143 -8.49689,-7.60248 -20.12422,-7.60248 -13.86335,0 -22.36024,5.81366 -8.2733,5.81366 -8.2733,15.65217 0,10.28572 9.61491,17.21739 8.04969,6.03727 21.01863,8.27329 22.13665,3.80125 34.65838,11.62733 16.32298,9.83851 16.32298,25.93789 0,19.22981 -13.86335,30.63354 -14.08695,11.62732 -37.11801,11.62732 -23.03105,0 -37.11801,-13.41614 -13.86335,-13.41615 -13.86335,-35.7764 z"
           style="font-style:normal;font-variant:normal;font-weight:bold;font-stretch:normal;font-family:'Shree Devanagari 714';-inkscape-font-specification:'Shree Devanagari 714 Bold';letter-spacing:26.82959557px;fill:#7f3981;fill-opacity:1"
           id="path11711" />
        <path
           d="m 935.90469,591.73797 0,-135.9503 21.24223,0 42.48447,107.10558 42.48451,-107.10558 21.2422,0 0,135.9503 -16.9938,0 0,-101.96273 -40.9192,101.96273 -11.85098,0 -40.69565,-101.96273 0,101.96273 -16.99378,0 z"
           style="font-style:normal;font-variant:normal;font-weight:bold;font-stretch:normal;font-family:'Shree Devanagari 714';-inkscape-font-specification:'Shree Devanagari 714 Bold';letter-spacing:26.82959557px;fill:#7f3981;fill-opacity:1"
           id="path11713" />
        <path
           d="m 1113.203,591.73797 0,-135.9503 16.9938,0 0,135.9503 -16.9938,0 z"
           style="font-style:normal;font-variant:normal;font-weight:bold;font-stretch:normal;font-family:'Shree Devanagari 714';-inkscape-font-specification:'Shree Devanagari 714 Bold';letter-spacing:26.82959557px;fill:#7f3981;fill-opacity:1"
           id="path11715" />
        <path
           d="m 1180.1107,591.73797 0,-135.9503 16.9938,0 67.9752,107.10558 0,-107.10558 16.9938,0 0,135.9503 -16.9938,0 -67.9752,-106.88198 0,106.88198 -16.9938,0 z"
           style="font-style:normal;font-variant:normal;font-weight:bold;font-stretch:normal;font-family:'Shree Devanagari 714';-inkscape-font-specification:'Shree Devanagari 714 Bold';letter-spacing:26.82959557px;fill:#7f3981;fill-opacity:1"
           id="path11717" />
        <path
           d="m 1332.0966,591.73797 0,-135.9503 93.4658,0 0,16.09938 -76.472,0 0,41.59005 67.9751,0 0,16.09938 -67.9751,0 0,46.06211 76.472,0 0,16.09938 -93.4658,0 z"
           style="font-style:normal;font-variant:normal;font-weight:bold;font-stretch:normal;font-family:'Shree Devanagari 714';-inkscape-font-specification:'Shree Devanagari 714 Bold';letter-spacing:26.82959557px;fill:#7f3981;fill-opacity:1"
           id="path11719" />
      </g>
    </g>
  </g>
  <g
     inkscape:label="Layer 1"
     inkscape:groupmode="layer"
     id="layer1"
     transform="translate(0,719.29134)" />
</svg>
