<?xml version="1.0" encoding="UTF-8" standalone="no"?>
<svg
   xmlns:dc="http://purl.org/dc/elements/1.1/"
   xmlns:cc="http://creativecommons.org/ns#"
   xmlns:rdf="http://www.w3.org/1999/02/22-rdf-syntax-ns#"
   xmlns:svg="http://www.w3.org/2000/svg"
   xmlns="http://www.w3.org/2000/svg"
   xmlns:sodipodi="http://sodipodi.sourceforge.net/DTD/sodipodi-0.dtd"
   xmlns:inkscape="http://www.inkscape.org/namespaces/inkscape"
   enable-background="new 0 0 48 48"
   id="Layer_1"
   version="1.1"
   viewBox="0 0 48 48"
   xml:space="preserve"
   inkscape:version="0.91 r13725"
   sodipodi:docname="linkedin.svg"><metadata
     id="metadata4787"><rdf:RDF><cc:Work
         rdf:about=""><dc:format>image/svg+xml</dc:format><dc:type
           rdf:resource="http://purl.org/dc/dcmitype/StillImage" /><dc:title></dc:title></cc:Work></rdf:RDF></metadata><defs
     id="defs4785" /><sodipodi:namedview
     pagecolor="#ffffff"
     bordercolor="#666666"
     borderopacity="1"
     objecttolerance="10"
     gridtolerance="10"
     guidetolerance="10"
     inkscape:pageopacity="0"
     inkscape:pageshadow="2"
     inkscape:window-width="1235"
     inkscape:window-height="683"
     id="namedview4783"
     showgrid="false"
     inkscape:zoom="4.9166667"
     inkscape:cx="-0.49067797"
     inkscape:cy="20.745704"
     inkscape:window-x="0"
     inkscape:window-y="0"
     inkscape:window-maximized="0"
     inkscape:current-layer="Layer_1" /><circle
     cx="24"
     cy="24"
     r="24"
     id="circle4779"
     fill="#1686B0" /><path
     d="M17.4,34.9h-4.6V20.1h4.6V34.9z M14.9,18.2L14.9,18.2c-1.7,0-2.8-1.1-2.8-2.6c0-1.5,1.1-2.6,2.8-2.6  c1.7,0,2.8,1.1,2.8,2.6C17.7,17.1,16.7,18.2,14.9,18.2z M35.9,34.9h-5.3v-7.7c0-2-0.8-3.4-2.6-3.4c-1.4,0-2.1,0.9-2.5,1.8  c-0.1,0.3-0.1,0.8-0.1,1.2v8h-5.2c0,0,0.1-13.6,0-14.8h5.2v2.3c0.3-1,2-2.5,4.6-2.5c3.3,0,5.9,2.1,5.9,6.7V34.9z"
     id="path4781"
     fill="#FFFFFF" /></svg>