<?xml version="1.0" encoding="UTF-8" standalone="no"?>
<!-- Created with Inkscape (http://www.inkscape.org/) -->

<svg
   xmlns:dc="http://purl.org/dc/elements/1.1/"
   xmlns:cc="http://creativecommons.org/ns#"
   xmlns:rdf="http://www.w3.org/1999/02/22-rdf-syntax-ns#"
   xmlns:svg="http://www.w3.org/2000/svg"
   xmlns="http://www.w3.org/2000/svg"
   xmlns:sodipodi="http://sodipodi.sourceforge.net/DTD/sodipodi-0.dtd"
   xmlns:inkscape="http://www.inkscape.org/namespaces/inkscape"
   id="svg12359"
   version="1.1"
   inkscape:version="0.91 r13725"
   width="600"
   height="600"
   viewBox="0 0 600 600"
   sodipodi:docname="pageSpeed.svg">
  <metadata
     id="metadata12365">
    <rdf:RDF>
      <cc:Work
         rdf:about="">
        <dc:format>image/svg+xml</dc:format>
        <dc:type
           rdf:resource="http://purl.org/dc/dcmitype/StillImage" />
        <dc:title></dc:title>
      </cc:Work>
    </rdf:RDF>
  </metadata>
  <defs
     id="defs12363" />
  <sodipodi:namedview
     pagecolor="#ffffff"
     bordercolor="#666666"
     borderopacity="1"
     objecttolerance="10"
     gridtolerance="10"
     guidetolerance="10"
     inkscape:pageopacity="0"
     inkscape:pageshadow="2"
     inkscape:window-width="1220"
     inkscape:window-height="673"
     id="namedview12361"
     showgrid="false"
     inkscape:zoom="0.65666667"
     inkscape:cx="326.01512"
     inkscape:cy="277.32045"
     inkscape:window-x="0"
     inkscape:window-y="0"
     inkscape:window-maximized="0"
     inkscape:current-layer="svg12359" />
  <g
     id="g12913"
     transform="translate(92.49308,94.664804)">
    <path
       style="fill:#f2f2f2"
       d="M 33.5,380.60699 C 26.751527,378.46292 23.496251,376.3234 18.251861,370.5852 9.2800432,360.7686 10,375.13382 10,205.9367 10,36.251334 9.3041464,50.205028 18.254519,40.411894 21.113805,37.28338 25.465716,33.936538 28.809846,32.294309 L 34.5,29.5 l 74.83324,-0.280537 74.83324,-0.280536 14.31472,14.008559 14.31471,14.008558 84.85205,0.271978 L 382.5,57.5 l 5.30355,2.938076 c 6.54561,3.626153 11.67704,9.185697 14.82509,16.06194 l 2.39897,5.240038 L 404.7638,220.62003 404.5,359.5 l -2.29149,4.29149 c -3.2766,6.1364 -9.52651,11.99716 -16.06055,15.06055 L 380.5,381.5 209,381.68892 C 72.645137,381.83913 36.680288,381.61741 33.5,380.60699 Z"
       id="path12927"
       inkscape:connector-curvature="0" />
    <path
       style="fill:#d0d0d0"
       d="m 33.299837,379.1438 c -7.024071,-2.43501 -12.86233,-6.64756 -16.459976,-11.87655 -6.251709,-9.08655 -5.890354,1.4444 -5.602677,-163.27898 L 11.5,53.5 13.783057,48.913959 C 16.943189,42.566112 23.469977,36.204803 30,33.108176 L 35.5,30.5 l 74.73634,0 74.73635,0 13.76365,13.730887 L 212.5,57.961773 297,58.230887 381.5,58.5 l 5,2.663602 c 6.5508,3.489746 11.77918,9.03502 14.93139,15.836398 l 2.54907,5.5 0.01,137.09028 0.01,137.09028 -3.03628,6.07613 c -3.45992,6.92391 -9.11664,12.4966 -15.84132,15.60598 L 380.5,380.5 l -171,0.22326 C 46.998295,380.93542 38.241564,380.85692 33.299837,379.1438 Z M 370.5,250.5 l 0,-96 -163,0 -163,0 -0.257881,95 c -0.141835,52.25 -0.04294,95.56385 0.219768,96.253 0.380575,0.99836 33.559975,1.20159 163.257883,1 L 370.5,346.5 l 0,-96 z m -172,68.11671 c -8.9433,-4.22795 -14.47543,-12.70455 -14.43415,-22.11671 0.0448,-10.21172 4.77141,-17.85854 13.62862,-22.04867 18.9673,-8.97297 108.22543,-47.65925 110.26634,-47.79167 1.7137,-0.11119 2.58288,0.43401 2.86288,1.79573 0.30321,1.47462 -5.71101,7.93414 -24.46081,26.27193 -58.31245,57.03108 -65.82232,64.02912 -69.9385,65.17195 -6.28171,1.74407 -12.45685,1.30222 -17.92438,-1.28256 z M 86.835144,314.37206 C 84.170469,313.59433 83.868524,311.2941 85.025327,300.5848 86.934316,282.91201 90.288789,271.23916 97.694152,256.5 114.46539,223.1196 144.6169,200.5994 183.5,192.4115 c 5.47982,-1.15393 12.88285,-1.69215 23.5,-1.70852 23.03657,-0.0355 39.94164,3.98166 59.26028,14.08209 10.34185,5.40707 12.82057,7.63059 10.67288,9.57407 -0.78824,0.71328 -8.97077,4.57534 -18.1834,8.58234 -18.26516,7.94436 -16.95568,7.76819 -30.24976,4.06974 -11.29889,-3.14338 -29.43404,-3.2073 -42,-0.14805 -25.6697,6.24945 -47.31295,23.49194 -58.53981,46.63683 -5.52653,11.39329 -7.59742,18.64166 -8.84634,30.96333 -0.48116,4.74704 -1.19041,8.94726 -1.57611,9.33383 -0.80029,0.80208 -28.168401,1.31455 -30.702596,0.5749 z m 210.813336,-1.13181 c -0.27525,-0.44537 -0.79449,-3.71913 -1.15385,-7.27501 -0.35935,-3.55588 -1.82309,-11.34915 -3.25274,-17.31838 l -2.59936,-10.85313 11.05916,-10.89687 C 307.78424,260.90359 313.48209,256 314.36358,256 c 3.0249,0 10.11801,17.16734 13.05827,31.60471 0.90782,4.45759 1.74678,12.10759 1.86436,17 L 329.5,313.5 l -15.67552,0.27501 c -8.62154,0.15126 -15.90074,-0.0894 -16.176,-0.53476 z M 370.77746,105.75 370.5,91.5 258,91.5 145.5,91.5 145.22254,105.75 144.94509,120 258,120 l 113.05491,0 -0.27745,-14.25 z M 63.686178,117.04977 c 8.150658,-4.96981 9.070791,-16.54392 1.821256,-22.909099 -6.21953,-5.46082 -14.292736,-5.105531 -20.028605,0.881427 -3.786523,3.952278 -4.627641,12.826902 -1.662476,17.540762 3.829604,6.08809 13.618551,8.29859 19.869825,4.48691 z m 47.131852,-0.0802 c 4.38717,-2.67477 7.52631,-9.61719 6.59449,-14.58418 -0.90654,-4.832305 -5.69712,-10.090787 -10.50526,-11.531343 -5.08619,-1.523859 -10.447255,0.01258 -14.384903,4.122597 -3.830647,3.998335 -4.688782,12.844336 -1.706004,17.586196 3.869639,6.15174 13.617097,8.29928 20.001677,4.40673 z"
       id="path12925"
       inkscape:connector-curvature="0" />
    <path
       style="fill:#bababa"
       d="m 31.5,377.51566 c -4.239518,-1.72185 -7.504266,-4.03704 -11.126777,-7.8905 C 11.262754,359.93384 12,374.38475 12,205.5 12,38.014007 11.381783,51.240635 19.639414,42.056162 22.208507,39.198713 26.509092,35.915137 29.797387,34.300364 L 35.5,31.5 109.38861,31.219016 183.27723,30.938031 197.18467,44.719016 211.09212,58.5 296.29606,59 381.5,59.5 l 5.31885,2.946403 c 6.40211,3.546478 10.67574,8.207959 13.81844,15.072513 l 2.33952,5.110177 L 403.2384,219.56455 403.5,356.5 l -2.80555,5.71391 c -3.44127,7.00865 -10.07415,13.03616 -17.33487,15.75274 -5.38708,2.01557 -6.92312,2.03314 -175.64709,2.00961 L 37.5,379.95253 l -6,-2.43687 z m 339.89301,-31.09745 c 0.91418,-2.3823 0.69935,-190.72452 -0.2192,-192.17121 -0.63323,-0.99735 -34.14341,-1.20139 -164.23468,-1 L 43.5,153.5 l -0.257854,96 c -0.141819,52.8 -0.04344,96.5625 0.218616,97.25 0.37849,0.99296 34.082131,1.25 163.900868,1.25 148.09918,0 163.48131,-0.14833 164.03138,-1.58179 z M 198.5,317.62258 c -5.95831,-2.8098 -8.67418,-5.57483 -11.41597,-11.62258 -4.10459,-9.05378 -2.0289,-20.02703 5.04386,-26.66464 4.70674,-4.41717 115.4318,-53.17567 117.05953,-51.54794 0.82506,0.82506 0.75041,1.64091 -0.28431,3.10745 -3.60585,5.11062 -87.40504,85.78096 -90.71602,87.32891 -5.3734,2.51215 -13.61904,2.26035 -19.68709,-0.6012 z M 85.723337,311.72141 c -0.269853,-0.70322 -0.106379,-5.44293 0.363274,-10.53268 3.228282,-34.98569 20.167099,-65.55606 47.590699,-85.88942 34.35566,-25.47317 81.89934,-31.0417 122.29196,-14.3234 10.50478,4.34788 20.15092,10.16148 19.80871,11.93844 -0.1596,0.8287 -7.61996,4.68445 -17.19538,8.8871 l -16.91348,7.42332 -11.08456,-2.80219 c -19.33407,-4.88768 -39.13767,-3.67252 -57.05209,3.50076 -21.90194,8.76996 -40.84934,27.73261 -49.63579,49.67573 -2.8336,7.07656 -5.07867,17.04018 -6.45583,28.65093 l -0.5634,4.75 -15.33173,0 c -11.525743,0 -15.453541,-0.3174 -15.822383,-1.27859 z M 297.99241,312.75 c -0.149,-4.90823 -2.47305,-19.45964 -4.17494,-26.1403 l -2.2648,-8.89029 10.97366,-10.34275 c 6.03552,-5.68851 11.60852,-10.23787 12.38444,-10.1097 1.74396,0.28808 6.20665,10.65723 9.54571,22.17962 2.68214,9.25552 5.32742,29.06822 4.25437,31.86455 -0.56851,1.48151 -2.49361,1.68887 -15.67947,1.68887 -8.26726,0 -15.0348,-0.1125 -15.03897,-0.25 z M 371.5,105.5 l 0,-15 -113.5,0 -113.5,0 -0.27953,13.95184 c -0.15375,7.67352 -0.0546,14.53794 0.22025,15.25428 0.40729,1.06138 21.46537,1.25537 113.77954,1.04816 L 371.5,120.5 l 0,-15 z M 62.930544,118.53592 c 13.530411,-6.99685 10.403641,-26.293838 -4.723682,-29.152395 -2.081471,-0.393328 -4.942993,0.0078 -7.777212,1.090192 -15.377953,5.872894 -11.078796,29.508243 5.37001,29.522543 2.364813,0.002 5.573711,-0.6551 7.130884,-1.46034 z m 46.999996,0 c 13.53041,-6.99685 10.40364,-26.293838 -4.72368,-29.152395 -2.08147,-0.393328 -4.94299,0.0078 -7.77721,1.090192 -15.377953,5.872894 -11.078796,29.508243 5.37001,29.522543 2.36481,0.002 5.57371,-0.6551 7.13088,-1.46034 z"
       id="path12923"
       inkscape:connector-curvature="0" />
    <path
       style="fill:#4384f1;fill-opacity:1"
       d="M 32.034512,376.79762 C 24.799698,374.02023 16.944981,366.2216 14.676293,359.56337 13.137284,355.04663 13,342.3868 13,204.98158 l 0,-149.662135 3.046831,-6.097249 c 3.42041,-6.844846 8.166404,-11.499813 14.902364,-14.61654 4.478526,-2.072212 5.723909,-2.110118 78.411205,-2.386604 L 183.22079,31.938103 197.46857,45.969052 211.71635,60 l 83.39183,0.04389 c 67.57305,0.03557 84.11303,0.301143 87.19383,1.400042 8.52379,3.040372 15.32985,9.90602 18.26476,18.424654 1.11992,3.250602 1.49566,28.352874 2.05522,137.304624 0.64115,124.84008 0.57418,133.70497 -1.05215,139.26801 -3.09291,10.57965 -9.5144,17.52033 -19.44557,21.01778 -3.87772,1.36562 -23.73779,1.53507 -174.5,1.48889 L 37.5,378.89579 32.034512,376.79762 Z M 371.96482,347.06574 c 1.12026,-2.09323 1.53743,-190.59333 0.42819,-193.48395 C 371.84293,152.14829 356.38487,152 207.5,152 c -148.884875,0 -164.342925,0.14829 -164.893011,1.58179 -0.793295,2.06729 -0.793295,191.76913 0,193.83642 C 43.157066,348.85169 58.577388,349 207.07181,349 c 160.97797,0 163.87602,-0.034 164.89301,-1.93426 z M 198.25165,316.89552 c -7.99818,-3.95903 -12.26563,-11.15191 -12.22969,-20.6134 0.0254,-6.68395 2.3654,-12.51695 6.60194,-16.4568 C 195.12963,277.49507 305.39165,228 308.07711,228 308.5847,228 309,228.40422 309,228.89826 c 0,1.73724 -86.13312,85.62888 -90.19902,87.85174 -5.52446,3.02026 -14.61168,3.08461 -20.54933,0.14552 z M 297.99241,312.75 c -0.149,-4.90823 -2.47305,-19.45964 -4.17494,-26.1403 l -2.2648,-8.89029 10.97366,-10.34275 c 6.03552,-5.68851 11.60852,-10.23787 12.38444,-10.1097 1.74396,0.28808 6.20665,10.65723 9.54571,22.17962 2.68214,9.25552 5.32742,29.06822 4.25437,31.86455 -0.56851,1.48151 -2.49361,1.68887 -15.67947,1.68887 -8.26726,0 -15.0348,-0.1125 -15.03897,-0.25 z m -210.694217,-11 C 89.636577,261.77157 115.07839,223.62874 151.41168,205.62988 169.98869,196.42716 185.26922,193 207.72391,193 c 16.40865,0 28.83689,2.05777 42.52623,7.04116 9.33815,3.39941 23.96527,10.94969 24.13644,12.45884 0.18055,1.59186 -31.51354,15.50363 -34.38658,15.09362 -1.375,-0.19623 -6.1,-1.37312 -10.5,-2.61531 -11.17443,-3.15472 -32.40249,-3.23302 -43.74216,-0.16134 -15.43034,4.17977 -25.73461,9.40207 -37.26555,18.88656 -17.89628,14.72014 -29.40344,37.18458 -32.03873,62.54647 l -0.59747,5.75 -14.57872,0 -14.578711,0 0.599534,-10.25 z M 372.77739,106.63546 C 372.96606,96.525261 372.68701,91.327797 371.90494,90.385465 370.93757,89.219845 352.87546,89 258.07756,89 171.77279,89 145.11913,89.280866 144.2,90.2 c -1.2941,1.294103 -1.77997,29.88669 -0.52912,31.13755 0.36899,0.36899 52.00649,0.55649 114.75,0.41667 L 372.5,121.5 372.77739,106.63546 Z M 65.102117,118.74855 c 8.244546,-5.46285 9.968745,-17.18144 3.595905,-24.439702 -6.771454,-7.712261 -16.262929,-8.280801 -24.050401,-1.440619 -7.85652,6.90083 -5.881353,21.812271 3.501615,26.435301 4.967472,2.44749 12.808972,2.19079 16.952881,-0.55498 z m 46.657023,0.25685 c 6.22081,-3.79287 9.43379,-12.08039 7.36301,-18.99204 -1.44799,-4.832944 -7.83848,-10.681916 -12.65895,-11.586241 -8.022252,-1.504984 -17.240175,4.279638 -19.33465,12.133281 -1.946247,7.29784 1.626813,15.59112 8.089633,18.77652 4.624146,2.27915 12.518627,2.12093 16.540957,-0.33152 z"
       id="path12921"
       inkscape:connector-curvature="0" />
    <path
       style="fill:#db4336;fill-opacity:1"
       d="m 62.222159,367.13515 c -6.997187,-6.54291 -13.8131,-13.07496 -15.146473,-14.51568 L 44.651372,350 206.89143,350 c 109.92383,0 162.86378,-0.33381 164.17431,-1.03518 C 372.95756,347.95234 373,345.8133 373,251.46482 373,198.40917 373.34353,155 373.7634,155 c 0.41987,0 6.95453,6.20301 14.52147,13.78446 l 13.75808,13.78446 -0.27148,87.46554 L 401.5,357.5 l -2.25614,4.2222 c -3.53847,6.62199 -7.90238,10.96276 -14.06226,13.98771 L 379.5,378.5 227.22216,378.76568 74.944319,379.03135 62.222159,367.13515 Z M 198.25165,316.89552 c -7.99818,-3.95903 -12.26563,-11.15191 -12.22969,-20.6134 0.0254,-6.68395 2.3654,-12.51695 6.60194,-16.4568 C 195.12963,277.49507 305.39165,228 308.07711,228 308.5847,228 309,228.40422 309,228.89826 c 0,1.73724 -86.13312,85.62888 -90.19902,87.85174 -5.52446,3.02026 -14.61168,3.08461 -20.54933,0.14552 z M 297.99241,312.75 c -0.149,-4.90823 -2.47305,-19.45964 -4.17494,-26.1403 l -2.2648,-8.89029 10.97366,-10.34275 c 6.03552,-5.68851 11.60852,-10.23787 12.38444,-10.1097 1.74396,0.28808 6.20665,10.65723 9.54571,22.17962 2.68214,9.25552 5.32742,29.06822 4.25437,31.86455 -0.56851,1.48151 -2.49361,1.68887 -15.67947,1.68887 -8.26726,0 -15.0348,-0.1125 -15.03897,-0.25 z"
       id="path12919"
       inkscape:connector-curvature="0" />
    <path
       style="fill:#3060b2;fill-opacity:1"
       d="m 62.222159,367.13515 c -6.997187,-6.54291 -13.8131,-13.07496 -15.146473,-14.51568 L 44.651372,350 206.89143,350 c 109.92383,0 162.86378,-0.33381 164.17431,-1.03518 C 372.95756,347.95234 373,345.8133 373,251.46482 373,198.40917 373.34353,155 373.7634,155 c 0.41987,0 6.95453,6.20301 14.52147,13.78446 l 13.75808,13.78446 -0.27148,87.46554 L 401.5,357.5 l -2.25614,4.2222 c -3.53847,6.62199 -7.90238,10.96276 -14.06226,13.98771 L 379.5,378.5 227.22216,378.76568 74.944319,379.03135 62.222159,367.13515 Z M 198.25165,316.89552 c -7.99818,-3.95903 -12.26563,-11.15191 -12.22969,-20.6134 0.0254,-6.68395 2.3654,-12.51695 6.60194,-16.4568 C 195.12963,277.49507 305.39165,228 308.07711,228 308.5847,228 309,228.40422 309,228.89826 c 0,1.73724 -86.13312,85.62888 -90.19902,87.85174 -5.52446,3.02026 -14.61168,3.08461 -20.54933,0.14552 z"
       id="path12917"
       inkscape:connector-curvature="0" />
    <path
       style="fill:#656565"
       d="m 198.25165,316.89552 c -7.99818,-3.95903 -12.26563,-11.15191 -12.22969,-20.6134 0.0254,-6.68395 2.3654,-12.51695 6.60194,-16.4568 C 195.12963,277.49507 305.39165,228 308.07711,228 308.5847,228 309,228.40422 309,228.89826 c 0,1.73724 -86.13312,85.62888 -90.19902,87.85174 -5.52446,3.02026 -14.61168,3.08461 -20.54933,0.14552 z"
       id="path12915"
       inkscape:connector-curvature="0" />
  </g>
  <g
     transform="translate(-13.094727,14)"
     style="font-style:normal;font-variant:normal;font-weight:bold;font-stretch:normal;font-size:40px;line-height:125%;font-family:STIXSizeTwoSym;-inkscape-font-specification:'STIXSizeTwoSym Bold';text-align:center;letter-spacing:0px;word-spacing:0px;text-anchor:middle;fill:#db4336;fill-opacity:1;stroke:none;stroke-width:1px;stroke-linecap:butt;stroke-linejoin:miter;stroke-opacity:1"
     id="flowRoot12994">
    <path
       d="m 87.079102,36.873873 7.207031,0 5.039062,21.191406 5.000005,-21.191406 7.24609,0 5,21.191406 5.03906,-21.191406 7.14844,0 -6.875,29.160156 -8.67188,0 -5.29296,-22.167969 -5.23438,22.167969 -8.671875,0 -6.933593,-29.160156 z"
       style="font-style:normal;font-variant:normal;font-weight:bold;font-stretch:normal;font-family:STIXSizeTwoSym;-inkscape-font-specification:'STIXSizeTwoSym Bold';fill:#db4336;fill-opacity:1"
       id="path13034" />
    <path
       d="m 133.7002,36.873873 20.29296,0 0,5.683593 -12.77343,0 0,5.429688 12.01172,0 0,5.683594 -12.01172,0 0,6.679687 13.20312,0 0,5.683594 -20.72265,0 0,-29.160156 z"
       style="font-style:normal;font-variant:normal;font-weight:bold;font-stretch:normal;font-family:STIXSizeTwoSym;-inkscape-font-specification:'STIXSizeTwoSym Bold';fill:#db4336;fill-opacity:1"
       id="path13036" />
    <path
       d="m 172.72363,48.162935 q 1.77735,0 2.69532,-0.78125 0.91796,-0.78125 0.91796,-2.304687 0,-1.503907 -0.91796,-2.285157 -0.91797,-0.800781 -2.69532,-0.800781 l -4.16015,0 0,6.171875 4.16015,0 z m 0.25391,12.753906 q 2.26562,0 3.39844,-0.957031 1.15234,-0.957031 1.15234,-2.890625 0,-1.894531 -1.13281,-2.832031 -1.13281,-0.957031 -3.41797,-0.957031 l -4.41406,0 0,7.636718 4.41406,0 z m 6.99219,-10.488281 q 2.42187,0.703125 3.75,2.597656 1.32812,1.894532 1.32812,4.648438 0,4.21875 -2.85156,6.289062 -2.85156,2.070313 -8.67188,2.070313 l -12.48046,0 0,-29.160156 11.28906,0 q 6.07422,0 8.78906,1.835937 2.73438,1.835938 2.73438,5.878906 0,2.128907 -0.9961,3.632813 -0.99609,1.484375 -2.89062,2.207031 z"
       style="font-style:normal;font-variant:normal;font-weight:bold;font-stretch:normal;font-family:STIXSizeTwoSym;-inkscape-font-specification:'STIXSizeTwoSym Bold';fill:#db4336;fill-opacity:1"
       id="path13038" />
    <path
       d="m 205.41895,36.873873 12.48046,0 q 5.56641,0 8.53516,2.480468 2.98828,2.460938 2.98828,7.03125 0,4.589844 -2.98828,7.070313 -2.96875,2.460937 -8.53516,2.460937 l -4.96093,0 0,10.117188 -7.51953,0 0,-29.160156 z m 7.51953,5.449218 0,8.144532 4.16015,0 q 2.1875,0 3.37891,-1.054688 1.19141,-1.074219 1.19141,-3.027344 0,-1.953125 -1.19141,-3.007812 -1.19141,-1.054688 -3.37891,-1.054688 l -4.16015,0 z"
       style="font-style:normal;font-variant:normal;font-weight:bold;font-stretch:normal;font-family:STIXSizeTwoSym;-inkscape-font-specification:'STIXSizeTwoSym Bold';fill:#db4336;fill-opacity:1"
       id="path13040" />
    <path
       d="m 234.71582,36.873873 20.29297,0 0,5.683593 -12.77344,0 0,5.429688 12.01172,0 0,5.683594 -12.01172,0 0,6.679687 13.20313,0 0,5.683594 -20.72266,0 0,-29.160156 z"
       style="font-style:normal;font-variant:normal;font-weight:bold;font-stretch:normal;font-family:STIXSizeTwoSym;-inkscape-font-specification:'STIXSizeTwoSym Bold';fill:#db4336;fill-opacity:1"
       id="path13042" />
    <path
       d="m 272.74316,49.80356 q 2.36329,0 3.37891,-0.878906 1.03516,-0.878906 1.03516,-2.890625 0,-1.992188 -1.03516,-2.851563 -1.01562,-0.859375 -3.37891,-0.859375 l -3.16406,0 0,7.480469 3.16406,0 z m -3.16406,5.195313 0,11.035156 -7.51953,0 0,-29.160156 11.48438,0 q 5.76171,0 8.4375,1.933593 2.69531,1.933594 2.69531,6.113282 0,2.890625 -1.40625,4.746093 -1.38672,1.855469 -4.19922,2.734375 1.54297,0.351563 2.75391,1.601563 1.23046,1.230469 2.48046,3.75 l 4.08204,8.28125 -8.00782,0 -3.55468,-7.246094 q -1.07422,-2.1875 -2.1875,-2.988281 -1.09375,-0.800781 -2.92969,-0.800781 l -2.12891,0 z"
       style="font-style:normal;font-variant:normal;font-weight:bold;font-stretch:normal;font-family:STIXSizeTwoSym;-inkscape-font-specification:'STIXSizeTwoSym Bold';fill:#db4336;fill-opacity:1"
       id="path13044" />
    <path
       d="m 292.84082,36.873873 20.29297,0 0,5.683593 -12.77344,0 0,5.429688 12.01172,0 0,5.683594 -12.01172,0 0,12.363281 -7.51953,0 0,-29.160156 z"
       style="font-style:normal;font-variant:normal;font-weight:bold;font-stretch:normal;font-family:STIXSizeTwoSym;-inkscape-font-specification:'STIXSizeTwoSym Bold';fill:#db4336;fill-opacity:1"
       id="path13046" />
    <path
       d="m 333.50488,41.795748 q -3.4375,0 -5.33203,2.539062 -1.89453,2.539063 -1.89453,7.148438 0,4.589843 1.89453,7.128906 1.89453,2.539062 5.33203,2.539062 3.45703,0 5.35157,-2.539062 1.89453,-2.539063 1.89453,-7.128906 0,-4.609375 -1.89453,-7.148438 -1.89454,-2.539062 -5.35157,-2.539062 z m 0,-5.449219 q 7.03125,0 11.01563,4.023437 3.98437,4.023438 3.98437,11.113282 0,7.070312 -3.98437,11.09375 -3.98438,4.023437 -11.01563,4.023437 -7.01172,0 -11.01562,-4.023437 -3.98438,-4.023438 -3.98438,-11.09375 0,-7.089844 3.98438,-11.113282 4.0039,-4.023437 11.01562,-4.023437 z"
       style="font-style:normal;font-variant:normal;font-weight:bold;font-stretch:normal;font-family:STIXSizeTwoSym;-inkscape-font-specification:'STIXSizeTwoSym Bold';fill:#db4336;fill-opacity:1"
       id="path13048" />
    <path
       d="m 364.85254,49.80356 q 2.36328,0 3.37891,-0.878906 1.03515,-0.878906 1.03515,-2.890625 0,-1.992188 -1.03515,-2.851563 -1.01563,-0.859375 -3.37891,-0.859375 l -3.16406,0 0,7.480469 3.16406,0 z m -3.16406,5.195313 0,11.035156 -7.51953,0 0,-29.160156 11.48437,0 q 5.76172,0 8.4375,1.933593 2.69531,1.933594 2.69531,6.113282 0,2.890625 -1.40625,4.746093 -1.38672,1.855469 -4.19922,2.734375 1.54297,0.351563 2.75391,1.601563 1.23047,1.230469 2.48047,3.75 l 4.08203,8.28125 -8.00781,0 -3.55469,-7.246094 q -1.07422,-2.1875 -2.1875,-2.988281 -1.09375,-0.800781 -2.92969,-0.800781 l -2.1289,0 z"
       style="font-style:normal;font-variant:normal;font-weight:bold;font-stretch:normal;font-family:STIXSizeTwoSym;-inkscape-font-specification:'STIXSizeTwoSym Bold';fill:#db4336;fill-opacity:1"
       id="path13050" />
    <path
       d="m 384.9502,36.873873 9.57031,0 6.64062,15.605468 6.67969,-15.605468 9.55078,0 0,29.160156 -7.10937,0 0,-21.328125 -6.71875,15.722656 -4.76563,0 -6.71875,-15.722656 0,21.328125 -7.1289,0 0,-29.160156 z"
       style="font-style:normal;font-variant:normal;font-weight:bold;font-stretch:normal;font-family:STIXSizeTwoSym;-inkscape-font-specification:'STIXSizeTwoSym Bold';fill:#db4336;fill-opacity:1"
       id="path13052" />
    <path
       d="m 442.41113,60.721529 -11.75781,0 -1.85547,5.3125 -7.55859,0 10.80078,-29.160156 8.96484,0 10.80078,29.160156 -7.55859,0 -1.83594,-5.3125 z m -9.88281,-5.410156 7.98828,0 -3.98437,-11.601563 -4.00391,11.601563 z"
       style="font-style:normal;font-variant:normal;font-weight:bold;font-stretch:normal;font-family:STIXSizeTwoSym;-inkscape-font-specification:'STIXSizeTwoSym Bold';fill:#db4336;fill-opacity:1"
       id="path13054" />
    <path
       d="m 455.65332,36.873873 8.39844,0 10.60547,20 0,-20 7.1289,0 0,29.160156 -8.39843,0 -10.60547,-20 0,20 -7.12891,0 0,-29.160156 z"
       style="font-style:normal;font-variant:normal;font-weight:bold;font-stretch:normal;font-family:STIXSizeTwoSym;-inkscape-font-specification:'STIXSizeTwoSym Bold';fill:#db4336;fill-opacity:1"
       id="path13056" />
    <path
       d="m 512.21582,64.432466 q -2.07031,1.074219 -4.31641,1.621094 -2.24609,0.546875 -4.6875,0.546875 -7.28515,0 -11.54296,-4.0625 -4.25782,-4.082031 -4.25782,-11.054687 0,-6.992188 4.25782,-11.054688 4.25781,-4.082031 11.54296,-4.082031 2.44141,0 4.6875,0.546875 2.2461,0.546875 4.31641,1.621094 l 0,6.035156 q -2.08984,-1.425781 -4.12109,-2.089844 -2.03125,-0.664062 -4.27735,-0.664062 -4.02343,0 -6.32812,2.578125 -2.30469,2.578125 -2.30469,7.109375 0,4.511718 2.30469,7.089843 2.30469,2.578125 6.32812,2.578125 2.2461,0 4.27735,-0.664062 2.03125,-0.664063 4.12109,-2.089844 l 0,6.035156 z"
       style="font-style:normal;font-variant:normal;font-weight:bold;font-stretch:normal;font-family:STIXSizeTwoSym;-inkscape-font-specification:'STIXSizeTwoSym Bold';fill:#db4336;fill-opacity:1"
       id="path13058" />
    <path
       d="m 518.3877,36.873873 20.29296,0 0,5.683593 -12.77343,0 0,5.429688 12.01172,0 0,5.683594 -12.01172,0 0,6.679687 13.20312,0 0,5.683594 -20.72265,0 0,-29.160156 z"
       style="font-style:normal;font-variant:normal;font-weight:bold;font-stretch:normal;font-family:STIXSizeTwoSym;-inkscape-font-specification:'STIXSizeTwoSym Bold';fill:#db4336;fill-opacity:1"
       id="path13060" />
  </g>
  <g
     transform="translate(-23.545898,0)"
     style="font-style:normal;font-variant:normal;font-weight:bold;font-stretch:normal;font-size:40px;line-height:125%;font-family:STIXSizeTwoSym;-inkscape-font-specification:'STIXSizeTwoSym Bold';text-align:center;letter-spacing:0px;word-spacing:0px;text-anchor:middle;fill:#db4336;fill-opacity:1;stroke:none;stroke-width:1px;stroke-linecap:butt;stroke-linejoin:miter;stroke-opacity:1"
     id="flowRoot13025">
    <path
       d="m 178.19434,521.21567 q -3.4375,0 -5.33204,2.53906 -1.89453,2.53906 -1.89453,7.14844 0,4.58984 1.89453,7.12891 1.89454,2.53906 5.33204,2.53906 3.45703,0 5.35156,-2.53906 1.89453,-2.53907 1.89453,-7.12891 0,-4.60938 -1.89453,-7.14844 -1.89453,-2.53906 -5.35156,-2.53906 z m 0,-5.44922 q 7.03125,0 11.01562,4.02344 3.98438,4.02344 3.98438,11.11328 0,7.07031 -3.98438,11.09375 -3.98437,4.02344 -11.01562,4.02344 -7.01172,0 -11.01563,-4.02344 -3.98437,-4.02344 -3.98437,-11.09375 0,-7.08984 3.98437,-11.11328 4.00391,-4.02344 11.01563,-4.02344 z"
       style=""
       id="path13063" />
    <path
       d="m 198.8584,516.29379 12.48047,0 q 5.5664,0 8.53515,2.48047 2.98828,2.46094 2.98828,7.03125 0,4.58985 -2.98828,7.07032 -2.96875,2.46093 -8.53515,2.46093 l -4.96094,0 0,10.11719 -7.51953,0 0,-29.16016 z m 7.51953,5.44922 0,8.14453 4.16016,0 q 2.1875,0 3.3789,-1.05468 1.19141,-1.07422 1.19141,-3.02735 0,-1.95312 -1.19141,-3.00781 -1.1914,-1.05469 -3.3789,-1.05469 l -4.16016,0 z"
       style=""
       id="path13065" />
    <path
       d="m 224.67871,516.29379 26.875,0 0,5.6836 -9.66797,0 0,23.47656 -7.51953,0 0,-23.47656 -9.6875,0 0,-5.6836 z"
       style=""
       id="path13067" />
    <path
       d="m 255.4209,516.29379 7.51953,0 0,29.16016 -7.51953,0 0,-29.16016 z"
       style=""
       id="path13069" />
    <path
       d="m 270.26465,516.29379 9.57031,0 6.64063,15.60547 6.67968,-15.60547 9.55078,0 0,29.16016 -7.10937,0 0,-21.32812 -6.71875,15.72265 -4.76563,0 -6.71875,-15.72265 0,21.32812 -7.1289,0 0,-29.16016 z"
       style=""
       id="path13071" />
    <path
       d="m 310.03027,516.29379 7.51953,0 0,29.16016 -7.51953,0 0,-29.16016 z"
       style=""
       id="path13073" />
    <path
       d="m 323.44824,516.29379 24.51172,0 0,4.55079 -15.64453,18.92578 16.09375,0 0,5.68359 -25.41016,0 0,-4.55078 15.64453,-18.92578 -15.19531,0 0,-5.6836 z"
       style=""
       id="path13075" />
    <path
       d="m 371.55371,540.14145 -11.75781,0 -1.85547,5.3125 -7.55859,0 10.80078,-29.16016 8.96484,0 10.80078,29.16016 -7.55859,0 -1.83594,-5.3125 z m -9.88281,-5.41016 7.98828,0 -3.98438,-11.60156 -4.0039,11.60156 z"
       style=""
       id="path13077" />
    <path
       d="m 378.19434,516.29379 26.875,0 0,5.6836 -9.66797,0 0,23.47656 -7.51953,0 0,-23.47656 -9.6875,0 0,-5.6836 z"
       style=""
       id="path13079" />
    <path
       d="m 408.93652,516.29379 7.51953,0 0,29.16016 -7.51953,0 0,-29.16016 z"
       style=""
       id="path13081" />
    <path
       d="m 437.10059,521.21567 q -3.4375,0 -5.33204,2.53906 -1.89453,2.53906 -1.89453,7.14844 0,4.58984 1.89453,7.12891 1.89454,2.53906 5.33204,2.53906 3.45703,0 5.35156,-2.53906 1.89453,-2.53907 1.89453,-7.12891 0,-4.60938 -1.89453,-7.14844 -1.89453,-2.53906 -5.35156,-2.53906 z m 0,-5.44922 q 7.03125,0 11.01562,4.02344 3.98438,4.02344 3.98438,11.11328 0,7.07031 -3.98438,11.09375 -3.98437,4.02344 -11.01562,4.02344 -7.01172,0 -11.01563,-4.02344 -3.98437,-4.02344 -3.98437,-11.09375 0,-7.08984 3.98437,-11.11328 4.00391,-4.02344 11.01563,-4.02344 z"
       style=""
       id="path13083" />
    <path
       d="m 457.76465,516.29379 8.39844,0 10.60546,20 0,-20 7.12891,0 0,29.16016 -8.39844,0 -10.60547,-20 0,20 -7.1289,0 0,-29.16016 z"
       style=""
       id="path13085" />
  </g>
</svg>
