<?xml version="1.0" encoding="UTF-8" standalone="no"?>
<!-- Created with Inkscape (http://www.inkscape.org/) -->

<svg
   xmlns:dc="http://purl.org/dc/elements/1.1/"
   xmlns:cc="http://creativecommons.org/ns#"
   xmlns:rdf="http://www.w3.org/1999/02/22-rdf-syntax-ns#"
   xmlns:svg="http://www.w3.org/2000/svg"
   xmlns="http://www.w3.org/2000/svg"
   xmlns:sodipodi="http://sodipodi.sourceforge.net/DTD/sodipodi-0.dtd"
   xmlns:inkscape="http://www.inkscape.org/namespaces/inkscape"
   id="svg4136"
   version="1.1"
   inkscape:version="0.91 r13725"
   width="600"
   height="600"
   viewBox="0 0 600 600"
   sodipodi:docname="watchmen.svg">
  <metadata
     id="metadata4142">
    <rdf:RDF>
      <cc:Work
         rdf:about="">
        <dc:format>image/svg+xml</dc:format>
        <dc:type
           rdf:resource="http://purl.org/dc/dcmitype/StillImage" />
        <dc:title></dc:title>
      </cc:Work>
    </rdf:RDF>
  </metadata>
  <defs
     id="defs4140" />
  <sodipodi:namedview
     pagecolor="#ffffff"
     bordercolor="#666666"
     borderopacity="1"
     objecttolerance="10"
     gridtolerance="10"
     guidetolerance="10"
     inkscape:pageopacity="0"
     inkscape:pageshadow="2"
     inkscape:window-width="1280"
     inkscape:window-height="692"
     id="namedview4138"
     showgrid="false"
     inkscape:zoom="0.73125189"
     inkscape:cx="161.40397"
     inkscape:cy="301.02288"
     inkscape:window-x="0"
     inkscape:window-y="1"
     inkscape:window-maximized="1"
     inkscape:current-layer="svg4136" />
  <path
     style="fill:#164c96;fill-opacity:1"
     d="M 210.95526,450.50242 C 95.506028,336.05017 130.07248,180.34514 138.69279,133.34069 c 2.83344,-1.62116 19.39251,-6.15897 36.79797,-10.08403 35.07242,-7.90908 105.45132,-28.332837 116.4936,-33.806091 5.49718,-2.724791 16.10406,-0.630523 47.20257,9.319932 22.06162,7.058949 58.30785,17.030499 80.5472,22.158989 22.23931,5.12852 41.56231,10.22258 42.93998,11.32015 1.37766,1.09758 4.62496,26.50133 7.21627,56.45276 10.58428,122.33921 -4.42501,185.89206 -87.7595,262.23034 -27.70248,25.37674 -81.08097,61.05735 -86.2576,60.70883 -62.72588,-35.27782 -72.48504,-52.14647 -84.91802,-61.13915 z m 151.44463,-49.24211 c 16.53475,-4.12347 24.70296,-36.28307 14.01717,-55.18799 -6.81695,-12.06041 -12.7755,-13.53383 -64.4788,-15.94443 -23.43484,-1.0926 -43.38963,-3.57837 -44.80675,-5.5815 -5.92445,-8.37464 5.48789,-12.31158 35.89394,-12.38239 27.10287,-0.0632 31.11295,0.7265 34.68243,6.82902 3.34384,5.71688 6.99174,6.71296 21.26834,5.80774 l 17.23226,-1.09267 -1.22242,-11.77246 c -0.67231,-6.47485 -4.46065,-14.80847 -8.41853,-18.51917 -6.58203,-6.17097 -12.03766,-6.73541 -63.93232,-6.61455 -53.05879,0.12343 -57.24402,0.60195 -64.57043,7.38051 -9.26907,8.57596 -13.058,32.49733 -7.3033,46.10986 5.4121,12.80216 16.16192,15.7098 66.93364,18.10433 42.7488,2.01612 43.71573,2.23708 43.73703,9.99631 0.022,7.8009 -0.60287,7.93603 -37.0578,8.02095 -33.99014,0.0791 -37.24126,-0.47683 -39.01949,-6.67262 -1.60583,-5.59493 -5.02943,-6.75175 -19.87933,-6.71715 l -17.93938,0.0419 0.0367,13.00273 c 0.0367,12.77183 6.05362,20.97711 18.43704,25.13596 7.47739,2.51123 106.3548,2.55857 116.39095,0.0558 z m -102.32187,-127.72254 23.59324,-3.89419 9.14512,-31.77929 9.1452,-31.77928 4.66736,13.29447 c 2.56706,7.31197 7.37255,22.03843 10.67888,32.72546 5.46353,17.65971 6.93914,19.42882 16.18771,19.40728 5.59692,-0.0135 18.22015,2.18442 28.05168,4.88324 9.83154,2.69886 18.22056,4.58153 18.64225,4.18377 1.20766,-1.13906 45.20676,-104.5071 45.20213,-106.19431 -0.002,-0.83079 -8.67119,-1.03034 -19.26426,-0.44351 l -19.26007,1.06703 -14.87569,38.29679 c -8.18165,21.06327 -16.41025,38.33706 -18.28584,38.38626 -1.87554,0.049 -9.24438,-17.51696 -16.3752,-39.03586 l -12.9651,-39.1253 -22.04494,0.0169 -22.04494,0.0169 -12.7391,40.61049 c -7.00651,22.33579 -13.86171,40.61313 -15.23379,40.61631 -2.50832,0.007 -9.60336,-16.06194 -25.73248,-58.275 l -8.71403,-22.80642 -17.46167,0.0406 c -9.60388,0.0237 -17.48639,1.18205 -17.51666,2.57708 -0.0294,1.39503 9.39654,25.78985 20.94849,54.21071 17.18255,42.27359 22.06367,51.23928 26.83099,49.28326 3.20509,-1.31505 16.44445,-4.14339 29.42072,-6.28517 z"
     id="path4231"
     inkscape:connector-curvature="0"
     sodipodi:nodetypes="ccssssssscccsscssscsssssscsssccsccccccsscscsscscscccscscccsscc" />
</svg>
